<?xml version="1.0" encoding="UTF-8"?>
<svg version="1.1" xmlns="http://www.w3.org/2000/svg" width="1024" height="1024">
<path d="M0 0 C337.92 0 675.84 0 1024 0 C1024 337.92 1024 675.84 1024 1024 C686.08 1024 348.16 1024 0 1024 C0 686.08 0 348.16 0 0 Z " fill="#101010" transform="translate(0,0)"/>
<path d="M0 0 C5.57762682 5.1515581 8.70174603 11.35122212 9.29296875 18.9609375 C10.63441714 56.31908439 -18.38048933 91.4203027 -42.30908203 117.4597168 C-47.35297352 122.85524649 -52.55036951 128.10283965 -57.75 133.34765625 C-58.64372314 134.25443115 -59.53744629 135.16120605 -60.45825195 136.09545898 C-61.29831787 136.93665283 -62.13838379 137.77784668 -63.00390625 138.64453125 C-63.76131104 139.40604492 -64.51871582 140.16755859 -65.29907227 140.95214844 C-67.1875 142.59765625 -67.1875 142.59765625 -69.1875 142.59765625 C-68.8575 143.58765625 -68.5275 144.57765625 -68.1875 145.59765625 C-68.01283036 148.38378024 -67.91052561 151.12258037 -67.875 153.91015625 C-67.83149414 155.03067383 -67.83149414 155.03067383 -67.78710938 156.17382812 C-67.72659602 161.47572864 -68.7343734 164.36293142 -72.1875 168.59765625 C-72.8475 169.25765625 -73.5075 169.91765625 -74.1875 170.59765625 C-73.70539063 171.11714844 -73.22328125 171.63664063 -72.7265625 172.171875 C-72.09492187 172.86925781 -71.46328125 173.56664062 -70.8125 174.28515625 C-70.18601562 174.96964844 -69.55953125 175.65414062 -68.9140625 176.359375 C-64.573363 181.98657142 -64.55696366 187.75042564 -65.1875 194.59765625 C-66.98574466 200.37096805 -69.79647114 205.38618414 -74.92930603 208.73358154 C-82.04421202 212.28332675 -88.80403816 212.1121565 -96.62890625 211.98828125 C-98.44352356 211.98223877 -98.44352356 211.98223877 -100.2947998 211.97607422 C-104.78002255 211.9552696 -109.26502776 211.89942487 -113.75 211.84765625 C-128.8165625 211.72390625 -128.8165625 211.72390625 -144.1875 211.59765625 C-144.1875 185.19765625 -144.1875 158.79765625 -144.1875 131.59765625 C-130.3584375 131.50484375 -130.3584375 131.50484375 -116.25 131.41015625 C-113.35613525 131.38284424 -110.46227051 131.35553223 -107.48071289 131.32739258 C-105.16553158 131.31862385 -102.85034561 131.31098083 -100.53515625 131.3046875 C-98.75812317 131.28166565 -98.75812317 131.28166565 -96.94519043 131.25817871 C-86.52486719 131.25491113 -79.36502529 133.16002996 -71.1875 139.59765625 C-66.9624621 135.48819689 -62.95371803 131.26744997 -59.11328125 126.796875 C-57.76271479 125.25454453 -56.3821876 123.73818125 -54.98046875 122.2421875 C-47.41278811 114.16102934 -40.76072201 105.49545857 -34.1875 96.59765625 C-33.66865234 95.89833984 -33.14980469 95.19902344 -32.61523438 94.47851562 C-17.29662988 73.70983583 2.0848544 46.66895172 -1.1875 19.59765625 C-3.0538562 12.7809649 -6.61773868 6.95973712 -12.54296875 3.0390625 C-42.11696652 -13.31841765 -81.68689996 -5.41044249 -112.484375 3.3515625 C-132.79785618 9.34183113 -152.91886079 16.41773069 -172.1484375 25.3203125 C-174.87025977 26.46431749 -177.27957278 27.15656617 -180.1875 27.59765625 C-151.98673797 4.95713892 -105.01110757 -6.2555066 -70.1875 -11.40234375 C-68.95515625 -11.59441406 -67.7228125 -11.78648437 -66.453125 -11.984375 C-43.76662936 -14.68285607 -18.86931989 -14.22136242 0 0 Z " fill="#F5F5F4" transform="translate(774.1875,335.40234375)"/>
<path d="M0 0 C10.23 -0.061875 20.46 -0.12375 31 -0.1875 C34.21621094 -0.21481201 37.43242188 -0.24212402 40.74609375 -0.27026367 C43.30989202 -0.27902974 45.87369447 -0.28667339 48.4375 -0.29296875 C49.75685547 -0.30831665 51.07621094 -0.32366455 52.43554688 -0.33947754 C61.0455094 -0.34191985 66.9382542 0.34424313 74.25 5.125 C79.92988845 11.0630652 81.25166061 16.44806686 81.4375 24.625 C81.19766854 32.8950505 79.60663893 37.78853529 74 44 C70.984375 45.80078125 70.984375 45.80078125 67.75 47.3125 C66.67234375 47.82425781 65.5946875 48.33601562 64.484375 48.86328125 C63.66453125 49.23839844 62.8446875 49.61351562 62 50 C62.83402344 51.01578125 63.66804687 52.0315625 64.52734375 53.078125 C84 76.8703075 84 76.8703075 84 79 C79.34433742 80.0972429 75.63923312 80.2621443 71 79 C67.07149726 75.91062722 64.2537353 71.80214624 61.36328125 67.76953125 C60.83347656 67.04290283 60.30367187 66.31627441 59.7578125 65.56762695 C58 63 58 63 56.0703125 59.59448242 C52.17925396 53.13471059 52.17925396 53.13471059 45.92410278 49.28915405 C40.10331423 48.21710996 34.26220418 48.47424293 28.375 48.6875 C26.58989056 48.70451802 24.80471462 48.71563622 23.01953125 48.72070312 C18.67175478 48.73483239 14.35194212 48.86974069 10 49 C10 58.9 10 68.8 10 79 C6.7 79 3.4 79 0 79 C0 52.93 0 26.86 0 0 Z " fill="#F5F5F4" transform="translate(530,468)"/>
<path d="M0 0 C0 4.10494717 -1.55526647 4.95115324 -4.375 7.875 C-9.49691632 13.32771432 -14.10004686 19.09248378 -18.56933594 25.08935547 C-20.13933034 27.18607496 -21.72993579 29.26636086 -23.3203125 31.34765625 C-41.77193108 55.69211972 -63.14208796 86.03956996 -60 118 C-57.98627667 126.517942 -53.65309181 132.50040317 -46.25 137.1875 C-26.76824796 148.26194833 0.82009991 145.93697607 22 141 C22.83966309 140.81727539 23.67932617 140.63455078 24.54443359 140.44628906 C77.65176133 128.82279846 127.29271483 104.50854383 173.77050781 76.90820312 C177.23024823 74.86395372 180.70308662 72.84349865 184.1796875 70.828125 C199.01008396 62.22080337 213.64129496 53.38162648 228 44 C228.68126953 43.55640137 229.36253906 43.11280273 230.06445312 42.65576172 C236.94173066 38.16594192 243.69447563 33.52019037 250.39892578 28.77636719 C258.20702489 23.25631814 266.04072178 17.9837921 274.30859375 13.1796875 C277.05240358 11.58168548 279.73719559 9.90921 282.41015625 8.1953125 C283.51182129 7.49100098 283.51182129 7.49100098 284.63574219 6.77246094 C286.06098484 5.85746667 287.4823864 4.93645481 288.89941406 4.00878906 C290.5626221 2.94564699 292.27756009 1.96422653 294 1 C294.66 1.33 295.32 1.66 296 2 C280.0531186 14.29196236 263.95221636 26.32945569 247.41308594 37.81567383 C242.61839048 41.14926663 237.87243316 44.5372414 233.16503906 47.99291992 C217.11503953 59.75248227 200.0835627 69.7900991 182.90899658 79.79473877 C176.30257173 83.64343083 169.73126286 87.54561649 163.1875 91.5 C160.12794997 93.33829593 157.06514504 95.17105034 154 97 C153.36545898 97.37995117 152.73091797 97.75990234 152.07714844 98.15136719 C112.48599019 121.68693066 66.71228812 140.01627629 21.62939453 149.44628906 C19.28438784 149.9401122 16.95417761 150.47683237 14.62109375 151.0234375 C4.57282546 153.20305125 -5.5719902 153.33694177 -15.8125 153.4375 C-16.86872559 153.45595978 -16.86872559 153.45595978 -17.94628906 153.47479248 C-33.34033172 153.69972293 -47.32178368 150.37047026 -58.875 139.625 C-66.98316088 130.98139453 -67.46828275 121.09568191 -67.26953125 109.7578125 C-65.85750741 74.99281176 -36.53286817 39.41728953 -14 15 C-12.41507051 13.23059511 -10.83172859 11.45976685 -9.25 9.6875 C-6.25445759 6.35620502 -3.21905639 3.11521587 0 0 Z " fill="#F2F2F1" transform="translate(315,566)"/>
<path d="M0 0 C1.24106003 0.00007553 2.48212006 0.00015106 3.76078796 0.00022888 C5.11502116 0.00533548 6.46925395 0.01055148 7.82348633 0.01586914 C9.20925343 0.01773456 10.59502119 0.01915788 11.98078918 0.02015686 C15.62549668 0.02397229 19.27016423 0.03379426 22.91485596 0.04486084 C26.63504496 0.05509589 30.35524042 0.05965897 34.07543945 0.06469727 C41.37298369 0.07541741 48.67049503 0.09248214 55.96801758 0.11352539 C55.96801758 3.74352539 55.96801758 7.37352539 55.96801758 11.11352539 C36.49801758 11.11352539 17.02801758 11.11352539 -3.03198242 11.11352539 C-3.03198242 18.70352539 -3.03198242 26.29352539 -3.03198242 34.11352539 C15.77801758 34.11352539 34.58801758 34.11352539 53.96801758 34.11352539 C53.96801758 38.07352539 53.96801758 42.03352539 53.96801758 46.11352539 C35.15801758 46.11352539 16.34801758 46.11352539 -3.03198242 46.11352539 C-3.03198242 53.70352539 -3.03198242 61.29352539 -3.03198242 69.11352539 C16.43801758 69.11352539 35.90801758 69.11352539 55.96801758 69.11352539 C55.96801758 72.74352539 55.96801758 76.37352539 55.96801758 80.11352539 C47.85755424 80.22957863 39.74744007 80.31832002 31.63635063 80.37258625 C27.86965398 80.39863682 24.10352701 80.4339494 20.3371582 80.49072266 C16.69963134 80.54520818 13.06265102 80.57498007 9.42474747 80.58791161 C8.03965785 80.59712217 6.65459682 80.61510898 5.26974106 80.64217567 C-6.88585734 80.87022004 -6.88585734 80.87022004 -10.88452148 78.54589844 C-15.16846325 73.85721496 -13.83822446 65.67262024 -13.75854492 59.70727539 C-13.75750689 58.17940269 -13.75854551 56.65152729 -13.76156616 55.12365723 C-13.761387 51.92569965 -13.74059165 48.72875348 -13.7043457 45.53100586 C-13.65896872 41.43842916 -13.65788486 37.34732906 -13.671381 33.25457001 C-13.67807433 30.10083972 -13.66477526 26.94744418 -13.64512253 23.79377747 C-13.63744171 22.28515883 -13.63511249 20.77650288 -13.63829422 19.26786804 C-13.63903878 17.15645838 -13.61371556 15.04691868 -13.58129883 12.93579102 C-13.57208405 11.73619751 -13.56286926 10.536604 -13.55337524 9.30065918 C-12.92882822 5.48297157 -11.75681269 3.81676711 -9.03198242 1.11352539 C-5.77826698 0.02895358 -3.42298922 -0.00694318 0 0 Z " fill="#F3F3F2" transform="translate(304.031982421875,466.886474609375)"/>
<path d="M0 0 C2.27348055 0.01605668 4.54517754 0.00010477 6.81860352 -0.01904297 C20.11025905 -0.03930699 30.24345359 2.0910214 40.32055664 11.17236328 C47.40275589 18.52579569 49.83558088 27.35537063 49.84204102 37.40087891 C49.82206055 38.40828125 49.80208008 39.41568359 49.78149414 40.45361328 C49.78858398 41.46488281 49.79567383 42.47615234 49.80297852 43.51806641 C49.71263896 54.31016852 47.35970001 62.83316894 40.03149414 70.95361328 C29.14354483 80.8287301 18.59306862 81.91186661 4.33081055 81.8371582 C1.84868844 81.82862941 -0.63114 81.85751707 -3.11303711 81.88916016 C-11.6917557 81.92642153 -18.96564868 81.66738399 -26.65600586 77.39111328 C-27.68725586 76.83423828 -28.71850586 76.27736328 -29.78100586 75.70361328 C-37.74249776 69.29980458 -42.92516821 62.54624023 -44.65600586 52.39111328 C-44.92001625 48.51871819 -44.93288327 44.64660028 -44.96850586 40.76611328 C-44.99750977 39.73615234 -45.02651367 38.70619141 -45.05639648 37.64501953 C-45.14490511 26.81973347 -42.43240576 18.18237985 -34.85913086 10.32861328 C-31.42727544 7.31052767 -27.86691965 5.14726302 -23.65600586 3.39111328 C-23.09695557 3.13217285 -22.53790527 2.87323242 -21.96191406 2.60644531 C-14.85533666 -0.27716051 -7.53901809 -0.06331898 0 0 Z M-28.84350586 20.64111328 C-35.42661755 28.88296177 -35.78684867 38.24678804 -34.65600586 48.39111328 C-32.97396772 55.96028489 -30.10927609 62.46217031 -23.47631836 66.82470703 C-15.56088927 71.40527501 -9.1916678 71.6329481 -0.08618164 71.6862793 C1.27329969 71.69774558 2.63273792 71.71811215 3.99194336 71.74780273 C15.09467467 71.98987203 24.48525568 70.91428944 32.87524414 63.09814453 C40.12346138 54.67401971 39.99888748 43.9320703 39.53198242 33.38330078 C39.13621968 29.18924371 37.61781936 25.8771171 35.34399414 22.39111328 C34.78711914 21.48361328 34.23024414 20.57611328 33.65649414 19.64111328 C24.79781585 11.02185873 13.70126094 10.03968666 1.90649414 10.07861328 C0.44759766 10.05444336 0.44759766 10.05444336 -1.04077148 10.02978516 C-11.95110431 10.02249702 -21.23147439 12.45213077 -28.84350586 20.64111328 Z " fill="#F6F6F5" transform="translate(462.656005859375,465.60888671875)"/>
<path d="M0 0 C1.77149666 0.0001133 1.77149666 0.0001133 3.57878113 0.00022888 C4.85385025 0.00539017 6.12891937 0.01055145 7.44262695 0.01586914 C9.40060966 0.01799156 9.40060966 0.01799156 11.39814758 0.02015686 C14.86530477 0.02397159 18.33241994 0.03379295 21.79956055 0.04486084 C25.33878003 0.05509741 28.87800631 0.05965929 32.41723633 0.06469727 C39.3593126 0.07541616 46.30135406 0.09300452 53.2434082 0.11352539 C53.2434082 3.74352539 53.2434082 7.37352539 53.2434082 11.11352539 C51.50736328 11.12287109 49.77131836 11.1322168 47.98266602 11.1418457 C42.24286488 11.17738533 36.50339079 11.23119103 30.76387405 11.29742813 C27.28437684 11.3369159 23.80513315 11.36909749 20.32543945 11.38452148 C16.32372444 11.40258087 12.32295697 11.4525252 8.3215332 11.50415039 C6.44948212 11.50599335 6.44948212 11.50599335 4.53961182 11.50787354 C3.37871033 11.52759216 2.21780884 11.54731079 1.02172852 11.56762695 C0.00024719 11.5765094 -1.02123413 11.58539185 -2.07366943 11.59454346 C-5.44760617 12.24719455 -6.61681299 13.48384278 -8.7565918 16.11352539 C-10.35745807 19.31525793 -10.25576269 22.63929598 -9.7565918 26.11352539 C-7.96295269 28.92355999 -6.73778244 30.62293007 -3.7565918 32.11352539 C-2.41561588 32.21565348 -1.06990406 32.25931155 0.27490234 32.27124023 C1.10659439 32.28150238 1.93828644 32.29176453 2.79518127 32.30233765 C3.69719772 32.30963898 4.59921417 32.31694031 5.52856445 32.32446289 C7.44068207 32.3525532 9.35279132 32.38121778 11.26489258 32.41040039 C14.27750216 32.45149811 17.28995921 32.48838507 20.30273438 32.51489258 C23.21167366 32.54270408 26.11990354 32.58859802 29.02856445 32.63696289 C30.3603347 32.64184219 30.3603347 32.64184219 31.7190094 32.64682007 C38.48070625 32.77802533 45.19681801 33.63658145 50.58325195 38.01586914 C51.11047852 38.6874707 51.63770508 39.35907227 52.1809082 40.05102539 C52.99881836 41.05456055 52.99881836 41.05456055 53.83325195 42.07836914 C58.37391374 48.63151261 57.87697834 55.40508874 57.2434082 63.11352539 C55.78710318 69.13230502 52.27607022 72.3745731 47.34106445 75.88696289 C42.86160231 78.5062387 39.26774785 79.36207338 34.07617188 79.34057617 C32.85528366 79.34042511 31.63439545 79.34027405 30.37651062 79.34011841 C29.06801651 79.32979584 27.7595224 79.31947327 26.41137695 79.30883789 C25.05089018 79.30510461 23.69040071 79.30225912 22.32991028 79.30026245 C18.76079803 79.29265077 15.19185029 79.27302373 11.62280273 79.25085449 C7.97617823 79.23034274 4.32952698 79.22124937 0.68286133 79.21118164 C-6.46369007 79.1897753 -13.61013015 79.15566936 -20.7565918 79.11352539 C-20.7565918 75.48352539 -20.7565918 71.85352539 -20.7565918 68.11352539 C-18.96519775 68.09894287 -17.17380371 68.08436035 -15.328125 68.06933594 C-9.40077813 68.01763173 -3.47366433 67.9523314 2.45343304 67.87781048 C6.04608085 67.83313593 9.63861604 67.79387378 13.23144531 67.76708984 C16.70056518 67.74102717 20.16925095 67.70060483 23.63810158 67.65033913 C25.60162665 67.62560318 27.56531978 67.61563312 29.52897644 67.60588074 C30.7298439 67.58608658 31.93071136 67.56629242 33.16796875 67.54589844 C34.22275925 67.53479538 35.27754974 67.52369232 36.36430359 67.51225281 C40.26962136 66.97140505 43.11562321 65.56353466 45.5559082 62.42602539 C46.93968436 57.77150558 46.861916 53.69415643 45.1184082 49.23852539 C42.35014815 46.101164 39.28830266 45.29020513 35.13897705 44.93170166 C32.6746866 44.85307977 30.21675199 44.8372383 27.7512207 44.84008789 C25.89314176 44.81979899 24.03506889 44.7989482 22.17700195 44.77758789 C19.27183893 44.7550178 16.36691655 44.73852238 13.46166992 44.73266602 C10.6410868 44.72309661 7.82156391 44.68927105 5.0012207 44.65258789 C4.14263458 44.65763336 3.28404846 44.66267883 2.39944458 44.6678772 C-4.35380596 44.55876539 -9.65820911 42.84105918 -14.7800293 38.33227539 C-15.22604492 37.76508789 -15.67206055 37.19790039 -16.1315918 36.61352539 C-16.59307617 36.04633789 -17.05456055 35.47915039 -17.5300293 34.89477539 C-21.79371088 28.70293207 -21.54773685 22.46458147 -20.7565918 15.11352539 C-18.65135565 9.13615846 -13.9138023 4.64535912 -8.7565918 1.11352539 C-5.57819489 0.05405975 -3.33813832 -0.00711757 0 0 Z " fill="#F3F3F2" transform="translate(116.756591796875,467.886474609375)"/>
<path d="M0 0 C1.77138336 0.00022659 1.77138336 0.00022659 3.57855225 0.00045776 C5.483414 0.01594162 5.483414 0.01594162 7.42675781 0.03173828 C8.73066467 0.03456818 10.03457153 0.03739807 11.37799072 0.04031372 C14.83697231 0.04793357 18.29578474 0.0675677 21.75469971 0.08972168 C25.28728955 0.11021575 28.81990685 0.11932304 32.35253906 0.12939453 C39.27839661 0.15081532 46.20411417 0.18598392 53.12988281 0.22705078 C53.12988281 3.85705078 53.12988281 7.48705078 53.12988281 11.22705078 C51.42936768 11.23639648 49.72885254 11.24574219 47.97680664 11.25537109 C42.34875897 11.29093888 36.72108262 11.34476219 31.09331226 11.41095352 C27.68222485 11.45040841 24.27139477 11.4826061 20.86010742 11.49804688 C16.93537472 11.51613328 13.01135519 11.56609358 9.08691406 11.61767578 C7.86591507 11.61890442 6.64491608 11.62013306 5.38691711 11.62139893 C4.24611191 11.64111755 3.1053067 11.66083618 1.92993164 11.68115234 C0.92843582 11.69003479 -0.07306 11.69891724 -1.10490417 11.70806885 C-4.60971987 12.36586122 -6.31461125 13.79041843 -8.87011719 16.22705078 C-10.55031762 20.21752682 -10.09602906 23.61708872 -8.62011719 27.60205078 C-6.97428385 30.43538411 -6.97428385 30.43538411 -3.87011719 32.22705078 C-1.93766288 32.53201748 -1.93766288 32.53201748 0.18310547 32.49829102 C0.99470123 32.50847763 1.806297 32.51866425 2.64248657 32.52915955 C3.51746796 32.53129959 4.39244934 32.53343964 5.29394531 32.53564453 C7.15722945 32.56082237 9.02051063 32.58622011 10.88378906 32.61181641 C13.8129792 32.64044759 16.74211741 32.6644685 19.67138672 32.68334961 C22.50419011 32.70516992 25.33636374 32.74463952 28.16894531 32.78564453 C29.03178131 32.78576035 29.89461731 32.78587616 30.78359985 32.78599548 C37.9314178 32.90079637 44.43974944 33.94628553 50.00488281 38.66455078 C50.70613281 39.51017578 51.40738281 40.35580078 52.12988281 41.22705078 C52.68675781 41.86642578 53.24363281 42.50580078 53.81738281 43.16455078 C57.37575552 48.75627932 58.04269524 54.76129608 57.12988281 61.22705078 C54.91572354 67.9486057 51.28765795 73.55964346 45.12988281 77.22705078 C40.95159861 78.84037578 37.50198881 79.473283 33.03271484 79.45410156 C31.26155807 79.45387497 31.26155807 79.45387497 29.45462036 79.4536438 C28.1950351 79.44332123 26.93544983 79.43299866 25.63769531 79.42236328 C24.33661835 79.41953339 23.03554138 79.41670349 21.69503784 79.41378784 C18.25252461 79.40618753 14.81018279 79.38657051 11.36773682 79.36437988 C7.84837156 79.34384339 4.32897834 79.33476951 0.80957031 79.32470703 C-6.08373594 79.30332078 -12.97690066 79.26816844 -19.87011719 79.22705078 C-19.87011719 75.59705078 -19.87011719 71.96705078 -19.87011719 68.22705078 C-18.10901611 68.21770508 -16.34791504 68.20835937 -14.53344727 68.19873047 C-8.70584584 68.16316729 -2.87856571 68.10934649 2.94875622 68.04314804 C6.48091134 68.00368794 10.01281774 67.97149274 13.54516602 67.95605469 C17.60896629 67.93797237 21.67183752 67.88801559 25.73535156 67.83642578 C27.00009811 67.83519714 28.26484467 67.83396851 29.56791687 67.83270264 C30.74876358 67.81298401 31.92961029 67.79326538 33.14624023 67.77294922 C34.18326584 67.76406677 35.22029144 67.75518433 36.28874207 67.74603271 C39.84797301 67.09587958 41.53913604 65.70221131 44.12988281 63.22705078 C45.85592681 59.77496278 45.48972215 56.00863511 45.12988281 52.22705078 C43.86860767 49.10705438 43.0485097 47.73113884 40.10375977 46.11523438 C35.95502687 44.87616613 32.04262496 44.94866466 27.73535156 44.95361328 C25.87401747 44.93332057 24.01268938 44.91246971 22.15136719 44.89111328 C19.23521839 44.868555 16.31930812 44.85205465 13.40307617 44.84619141 C10.57590258 44.83661993 7.74978598 44.80278625 4.92285156 44.76611328 C4.06112839 44.77115875 3.19940521 44.77620422 2.31156921 44.78140259 C-4.46113207 44.67240508 -9.68249429 42.92237671 -14.89355469 38.51611328 C-19.94426843 32.29760445 -21.36356339 26.98704217 -21.17871094 18.97314453 C-20.39943571 12.03858147 -16.9379318 7.75495449 -11.65136719 3.45361328 C-7.66606375 0.70934732 -4.87885165 -0.02084979 0 0 Z " fill="#F0F0F0" transform="translate(871.8701171875,467.77294921875)"/>
<path d="M0 0 C3.63 0 7.26 0 11 0 C11 11.22 11 22.44 11 34 C29.81 34 48.62 34 68 34 C68 23.11 68 12.22 68 1 C71.63 1 75.26 1 79 1 C79 27.07 79 53.14 79 80 C75.37 80 71.74 80 68 80 C68 68.45 68 56.9 68 45 C49.19 45 30.38 45 11 45 C11 56.55 11 68.1 11 80 C7.37 80 3.74 80 0 80 C0 53.6 0 27.2 0 0 Z " fill="#EFEFEE" transform="translate(193,467)"/>
<path d="M0 0 C0.33 0 0.66 0 1 0 C1.07516846 0.96711914 1.15033691 1.93423828 1.2277832 2.93066406 C1.51393432 6.57703867 1.81357105 10.22220871 2.11694336 13.8671875 C2.24552744 15.43395477 2.37062912 17.00101244 2.49194336 18.56835938 C3.8037489 39.64516041 3.8037489 39.64516041 15.00390625 56.78125 C24.97483915 64.05878242 36.7689478 64.56426112 48.6875 65.1875 C50.08274513 65.26911511 51.47792863 65.3517908 52.87304688 65.43554688 C56.24824327 65.63408784 59.62366888 65.82199561 63 66 C63 66.33 63 66.66 63 67 C62.18958252 67.06993164 61.37916504 67.13986328 60.54418945 67.21191406 C57.46964533 67.48407893 54.39659906 67.769024 51.32397461 68.06201172 C49.36724117 68.244884 47.40920656 68.41366206 45.45117188 68.58203125 C34.0349377 69.68589104 20.47587161 71.45577458 12 80 C2.97560361 93.45879807 2.99222049 109.48370098 2.4375 125.125 C2.37272461 126.84589844 2.37272461 126.84589844 2.30664062 128.6015625 C2.20166354 131.40095143 2.09950535 134.20041215 2 137 C1.34 137 0.68 137 0 137 C-0.04487549 136.10917725 -0.08975098 135.21835449 -0.13598633 134.30053711 C-0.31177814 130.91714669 -0.49759971 127.53458924 -0.68969727 124.15209961 C-0.77006497 122.70276477 -0.84671021 121.25321754 -0.91918945 119.8034668 C-1.79119504 96.77038131 -1.79119504 96.77038131 -13.25 77.6875 C-22.01488318 71.08781362 -31.46283094 69.93567237 -42.0625 68.75 C-43.51513089 68.57683226 -44.96760725 68.40236299 -46.41992188 68.2265625 C-49.94496039 67.80269618 -53.47176049 67.39645289 -57 67 C-57 66.67 -57 66.34 -57 66 C-56.20416504 65.92483154 -55.40833008 65.84966309 -54.58837891 65.7722168 C-50.9328403 65.42099838 -47.27900065 65.05436021 -43.625 64.6875 C-42.37332031 64.56955078 -41.12164062 64.45160156 -39.83203125 64.33007812 C-26.42051315 63.11655472 -26.42051315 63.11655472 -14.625 57.125 C-14.01914062 56.65320313 -13.41328125 56.18140625 -12.7890625 55.6953125 C0.43949603 43.15995355 -0.96014641 17.13103324 0 0 Z " fill="#F5F6F4" transform="translate(513,296)"/>
<path d="M0 0 C5.57762682 5.1515581 8.70174603 11.35122212 9.29296875 18.9609375 C10.4699079 51.7376481 -11.89859217 81.73729274 -32.1875 105.59765625 C-33.75 104.34765625 -33.75 104.34765625 -35.1875 102.59765625 C-34.97539577 99.20398863 -33.54823602 97.86759473 -31.1875 95.59765625 C-29.60015492 93.18489173 -28.30795396 90.91061859 -27.27001953 88.21386719 C-26.19922669 85.62599708 -24.95108977 83.46006581 -23.4296875 81.11328125 C-22.62035767 79.84689819 -22.62035767 79.84689819 -21.79467773 78.55493164 C-21.22305908 77.66153076 -20.65144043 76.76812988 -20.0625 75.84765625 C-9.47916779 58.9876355 1.3082808 40.24457017 -1.1875 19.59765625 C-3.0538562 12.7809649 -6.61773868 6.95973712 -12.54296875 3.0390625 C-42.11696652 -13.31841765 -81.68689996 -5.41044249 -112.484375 3.3515625 C-132.79785618 9.34183113 -152.91886079 16.41773069 -172.1484375 25.3203125 C-174.87025977 26.46431749 -177.27957278 27.15656617 -180.1875 27.59765625 C-151.98673797 4.95713892 -105.01110757 -6.2555066 -70.1875 -11.40234375 C-68.95515625 -11.59441406 -67.7228125 -11.78648437 -66.453125 -11.984375 C-43.76662936 -14.68285607 -18.86931989 -14.22136242 0 0 Z " fill="#F3F4F3" transform="translate(774.1875,335.40234375)"/>
<path d="M0 0 C7.2963677 -0.09190666 14.59072135 -0.17152676 21.88720703 -0.21972656 C24.36839611 -0.23982241 26.84953795 -0.26710384 29.33056641 -0.30175781 C32.90018382 -0.35036294 36.46917416 -0.37298972 40.0390625 -0.390625 C41.14553131 -0.41127014 42.25200012 -0.43191528 43.39199829 -0.45318604 C49.59229298 -0.45498616 53.30168394 -0.1881136 58 4 C61.19909526 7.73227781 61.46624129 11.10789149 61.28515625 15.85546875 C60.70960177 20.18395379 58.68544688 22.3672798 55.5625 25.25 C51.74193243 27.8591681 48.61086611 28.12528574 44.04785156 28.11352539 C43.06713684 28.11344986 42.08642212 28.11337433 41.07598877 28.11329651 C40.02481873 28.10813522 38.97364868 28.10297394 37.890625 28.09765625 C36.80867859 28.0962413 35.72673218 28.09482635 34.61199951 28.09336853 C31.1579715 28.08777318 27.70400841 28.0752215 24.25 28.0625 C21.90755302 28.0574844 19.56510502 28.0529216 17.22265625 28.04882812 C11.48172572 28.03865638 5.74093551 28.01907992 0 28 C0 18.76 0 9.52 0 0 Z " fill="#0F100F" transform="translate(540,479)"/>
<path d="M0 0 C25.74 0 51.48 0 78 0 C78 3.63 78 7.26 78 11 C66.78 11 55.56 11 44 11 C44 33.44 44 55.88 44 79 C40.7 79 37.4 79 34 79 C34 56.56 34 34.12 34 11 C22.78 11 11.56 11 0 11 C0 7.37 0 3.74 0 0 Z " fill="#F8F8F7" transform="translate(760,468)"/>
<path d="M0 0 C6.56574586 -0.0690055 13.13022489 -0.12870048 19.69604492 -0.16479492 C21.92785922 -0.17984741 24.1596441 -0.20029398 26.39135742 -0.22631836 C29.60603104 -0.26285688 32.82031228 -0.27976215 36.03515625 -0.29296875 C37.52306419 -0.31619453 37.52306419 -0.31619453 39.04103088 -0.33988953 C44.82252994 -0.34128253 48.90917213 0.18663674 54 3 C56.65823775 5.7246937 57.87148708 7.61737829 58.2265625 11.4375 C58.08943798 14.98164137 57.88349356 17.84304415 55.6875 20.71875 C51.73532367 24.11762164 48.32330722 25.12683283 43.25317383 25.11352539 C42.29240433 25.11344986 41.33163483 25.11337433 40.3417511 25.11329651 C39.30729355 25.10813522 38.272836 25.10297394 37.20703125 25.09765625 C35.61528328 25.09553383 35.61528328 25.09553383 33.99137878 25.09336853 C30.59839065 25.08776606 27.20546823 25.07521314 23.8125 25.0625 C21.51367283 25.05748532 19.21484462 25.05292236 16.91601562 25.04882812 C11.27729799 25.03864626 5.63872266 25.01907122 0 25 C0 16.75 0 8.5 0 0 Z " fill="#131313" transform="translate(641,512)"/>
<path d="M0 0 C6.2992413 -0.0689698 12.59716597 -0.12867498 18.89648438 -0.16479492 C21.03813117 -0.17985641 23.17974724 -0.20030972 25.32128906 -0.22631836 C28.40437411 -0.26281728 31.48705038 -0.27975302 34.5703125 -0.29296875 C35.52366486 -0.30845261 36.47701721 -0.32393646 37.45925903 -0.33988953 C43.65481414 -0.34144855 47.63025127 0.67603536 52.8125 4.25 C54.74402507 7.09645799 54.84089018 9.6019484 55 13 C52.53376761 17.65033641 48.80780284 20.91397627 44 23 C36.5704531 24.58633054 28.84804165 23.94376743 21.3125 23.625 C19.24294647 23.57476418 17.17327532 23.52915005 15.10351562 23.48828125 C10.06370224 23.38736388 5.04040979 23.19181263 0 23 C0 15.41 0 7.82 0 0 Z " fill="#0F0F0E" transform="translate(641,478)"/>
<path d="M0 0 C3.3 0 6.6 0 10 0 C10 26.07 10 52.14 10 79 C6.7 79 3.4 79 0 79 C0 52.93 0 26.86 0 0 Z " fill="#F8F8F7" transform="translate(731,468)"/>
<path d="M0 0 C0.33 0 0.66 0 1 0 C1.14695312 1.71896484 1.14695312 1.71896484 1.296875 3.47265625 C1.44706219 5.00268828 1.59815205 6.5326319 1.75 8.0625 C1.811875 8.81466797 1.87375 9.56683594 1.9375 10.34179688 C2.50742773 15.8273513 3.81249453 19.46525751 7 24 C12.91115864 28.64788684 20.78261499 28.75575685 28 29 C28 29.33 28 29.66 28 30 C27.05898438 30.10957031 26.11796875 30.21914063 25.1484375 30.33203125 C23.28058594 30.56986328 23.28058594 30.56986328 21.375 30.8125 C19.53035156 31.03873047 19.53035156 31.03873047 17.6484375 31.26953125 C13.97369077 32.00526748 11.28427888 33.24228477 8 35 C7.34 35 6.68 35 6 35 C3.44428344 41.20674022 1.75713831 46.62388992 1.375 53.375 C1.30023438 54.62023437 1.22546875 55.86546875 1.1484375 57.1484375 C1.09945313 58.08945312 1.05046875 59.03046875 1 60 C0.67 60 0.34 60 0 60 C-0.09796875 58.9378125 -0.1959375 57.875625 -0.296875 56.78125 C-1.34445216 43.79354189 -1.34445216 43.79354189 -8.875 33.625 C-14.40483585 30.8783123 -20.94510558 30.6382413 -27 30 C-27 29.67 -27 29.34 -27 29 C-26.05898438 28.89042969 -25.11796875 28.78085937 -24.1484375 28.66796875 C-22.90320313 28.50941406 -21.65796875 28.35085938 -20.375 28.1875 C-18.53035156 27.96126953 -18.53035156 27.96126953 -16.6484375 27.73046875 C-11.47707711 26.69508931 -8.23299336 25.41581652 -4.734375 21.3984375 C-2.57243943 17.1622124 -1.88386313 13.30067274 -1.25 8.625 C-1.06244141 7.37783203 -1.06244141 7.37783203 -0.87109375 6.10546875 C-0.56728337 4.07227623 -0.28176122 2.03636519 0 0 Z " fill="#F4F4F4" transform="translate(387,578)"/>
<path d="M0 0 C0.99 0.99 0.99 0.99 2 2 C3.98821313 2.39764263 5.98944339 2.73775349 8 3 C8 3.33 8 3.66 8 4 C6.45119141 4.12955078 6.45119141 4.12955078 4.87109375 4.26171875 C-30.92458715 7.5665758 -66.4724356 19.68168315 -98.9609375 34.72265625 C-101.68275977 35.86666124 -104.09207278 36.55890992 -107 37 C-87.87972773 21.64960431 -23.24667281 -9.08073157 0 0 Z " fill="#F0F0F0" transform="translate(701,326)"/>
<path d="M0 0 C0.33 0 0.66 0 1 0 C1.08636719 0.67546875 1.17273438 1.3509375 1.26171875 2.046875 C2.13706947 7.76867963 2.13706947 7.76867963 5.1875 12.5625 C8.48833795 14.24959495 11.32162627 14.7115001 15 15 C15 15.33 15 15.66 15 16 C13.7625 16.2475 12.525 16.495 11.25 16.75 C7.41914456 17.74493949 5.26999809 18.59500287 3 22 C2.1077552 24.96902149 1.49664628 27.94170449 1 31 C-1 28 -1 28 -1.9375 24.5 C-2.97767741 21.07353323 -3.28935239 20.09021049 -6 18 C-8.49443774 17.21201945 -8.49443774 17.21201945 -11.1875 16.8125 C-12.53908203 16.57466797 -12.53908203 16.57466797 -13.91796875 16.33203125 C-14.60503906 16.22246094 -15.29210937 16.11289062 -16 16 C-16 15.67 -16 15.34 -16 15 C-15.31292969 14.89042969 -14.62585938 14.78085937 -13.91796875 14.66796875 C-13.01691406 14.50941406 -12.11585938 14.35085938 -11.1875 14.1875 C-10.29417969 14.03667969 -9.40085937 13.88585937 -8.48046875 13.73046875 C-5.70465723 12.91302504 -4.69738798 12.31838359 -3 10 C-2.00011074 7.50981988 -2.00011074 7.50981988 -1.3125 4.8125 C-1.06113281 3.91144531 -0.80976562 3.01039063 -0.55078125 2.08203125 C-0.36902344 1.39496094 -0.18726563 0.70789063 0 0 Z " fill="#F5F6F4" transform="translate(615,617)"/>
<path d="M0 0 C12.54 0 25.08 0 38 0 C38 0.99 38 1.98 38 3 C26.12 2.67 14.24 2.34 2 2 C2.03959626 11.49892964 2.03959626 11.49892964 2.09008789 20.99780273 C2.09258545 22.17286377 2.09508301 23.3479248 2.09765625 24.55859375 C2.10289307 25.76829834 2.10812988 26.97800293 2.11352539 28.22436523 C2 31 2 31 1 32 C-0.85287502 32.07226502 -2.70833878 32.0838122 -4.5625 32.0625 C-5.57441406 32.05347656 -6.58632813 32.04445313 -7.62890625 32.03515625 C-8.41136719 32.02355469 -9.19382812 32.01195312 -10 32 C-9.67 31.34 -9.34 30.68 -9 30 C-6.03 30 -3.06 30 0 30 C0 20.1 0 10.2 0 0 Z " fill="#1B1B1B" transform="translate(540,517)"/>
<path d="M0 0 C18.81 0 37.62 0 57 0 C57 0.33 57 0.66 57 1 C39.18 1.33 21.36 1.66 3 2 C2.75063886 12.02173424 2.75063886 12.02173424 2.52197266 22.04394531 C2.46855713 23.91711426 2.46855713 23.91711426 2.4140625 25.828125 C2.3826416 27.1059082 2.3512207 28.38369141 2.31884766 29.70019531 C2 33 2 33 0 37 C-3.3 37 -6.6 37 -10 37 C-9.34 36.34 -8.68 35.68 -8 35 C-5.36 35 -2.72 35 0 35 C0 23.45 0 11.9 0 0 Z " fill="#1D1D1C" transform="translate(204,512)"/>
<path d="M0 0 C7.92 0 15.84 0 24 0 C24 0.33 24 0.66 24 1 C16.74 1 9.48 1 2 1 C2.33 9.25 2.66 17.5 3 26 C18.18 26.33 33.36 26.66 49 27 C49 27.33 49 27.66 49 28 C32.83 28 16.66 28 0 28 C0 18.76 0 9.52 0 0 Z " fill="#292929" transform="translate(540,479)"/>
<path d="M0 0 C0.33 0 0.66 0 1 0 C1.495 4.95 1.495 4.95 2 10 C-5.65378688 10.07398079 -13.30736712 10.12852205 -20.96142578 10.16479492 C-23.56693139 10.17991108 -26.17241144 10.20040432 -28.77783203 10.22631836 C-32.51601456 10.26257688 -36.25386165 10.27969798 -39.9921875 10.29296875 C-41.16304901 10.30845261 -42.33391052 10.32393646 -43.54025269 10.33988953 C-44.62122223 10.34011612 -45.70219177 10.34034271 -46.81591797 10.34057617 C-47.77078094 10.34723801 -48.72564392 10.35389984 -49.70944214 10.36076355 C-50.46532623 10.24171158 -51.22121033 10.12265961 -52 10 C-52.66 9.01 -53.32 8.02 -54 7 C-36.18 7 -18.36 7 0 7 C0 4.69 0 2.38 0 0 Z " fill="#C6C6C4" transform="translate(168,469)"/>
<path d="M0 0 C0.268125 0.556875 0.53625 1.11375 0.8125 1.6875 C1.204375 2.450625 1.59625 3.21375 2 4 C2.61875 5.299375 2.61875 5.299375 3.25 6.625 C5.4804804 9.65208055 7.41422344 10.12347684 11 11 C10.4225 11.2475 9.845 11.495 9.25 11.75 C5.02774006 14.09569997 3.29317006 16.12048983 1.75 20.75 C1.37875 22.35875 1.37875 22.35875 1 24 C0.67 24 0.34 24 0 24 C-0.10957031 23.37351562 -0.21914063 22.74703125 -0.33203125 22.1015625 C-0.49058594 21.28429687 -0.64914062 20.46703125 -0.8125 19.625 C-0.96332031 18.81289063 -1.11414063 18.00078125 -1.26953125 17.1640625 C-1.87544942 14.64179359 -1.87544942 14.64179359 -5 13 C-6.65549531 12.61500109 -8.3222433 12.27206865 -10 12 C-6 10 -6 10 -3.875 9.375 C-0.72353068 7.0639225 -0.72258327 3.73334692 0 0 Z " fill="#F4F4F4" transform="translate(413,392)"/>
<path d="M0 0 C0.33 0.99 0.66 1.98 1 3 C-1.27995186 6.41992779 -2.01495914 6.6114352 -5.8125 7.6875 C-7.09060547 8.06455078 -7.09060547 8.06455078 -8.39453125 8.44921875 C-11.01080386 9.00228387 -13.33475917 9.10048484 -16 9 C-15.75 7.125 -15.75 7.125 -15 5 C-13.125 3.9375 -13.125 3.9375 -11 3 C-10.5875 2.46375 -10.175 1.9275 -9.75 1.375 C-6.80758046 -0.93690107 -3.64351176 -0.1791891 0 0 Z " fill="#F6F6F6" transform="translate(366,702)"/>
<path d="M0 0 C0 1.98 0 3.96 0 6 C-14.355 4.515 -14.355 4.515 -29 3 C-29 2.67 -29 2.34 -29 2 C-25.66729126 1.66022275 -22.33375214 1.32936937 -19 1 C-17.59814453 0.85691406 -17.59814453 0.85691406 -16.16796875 0.7109375 C-10.74681677 0.18019535 -5.44677829 -0.1027694 0 0 Z " fill="#EEEEEE" transform="translate(485,360)"/>
<path d="M0 0 C4.80546679 -0.07405295 9.6106029 -0.12855497 14.41650391 -0.16479492 C16.05197941 -0.17989911 17.68741429 -0.20038389 19.32275391 -0.22631836 C21.67100024 -0.26263145 24.01871205 -0.27970932 26.3671875 -0.29296875 C27.10057343 -0.30845261 27.83395935 -0.32393646 28.58956909 -0.33988953 C30.65185547 -0.34057617 30.65185547 -0.34057617 34 0 C34.66 0.99 35.32 1.98 36 3 C24.78 3 13.56 3 2 3 C1.67 6.3 1.34 9.6 1 13 C0.67 13 0.34 13 0 13 C0 8.71 0 4.42 0 0 Z " fill="#D3D4D2" transform="translate(802,476)"/>
<path d="M0 0 C10.56 0 21.12 0 32 0 C32.495 1.485 32.495 1.485 33 3 C21.78 3 10.56 3 -1 3 C-0.67 2.01 -0.34 1.02 0 0 Z " fill="#C9C9C7" transform="translate(761,476)"/>
<path d="M0 0 C0.33 0 0.66 0 1 0 C1 1.98 1 3.96 1 6 C1.66 6 2.32 6 3 6 C3 14.91 3 23.82 3 33 C2.34 33 1.68 33 1 33 C0.34235269 21.98440762 -0.16207546 11.03913945 0 0 Z " fill="#E1E1E1" transform="translate(512,400)"/>
<path d="M0 0 C2.8002232 1.4001116 3.56776098 3.26572551 5 6 C5 6.99 5 7.98 5 9 C4.34 9 3.68 9 3 9 C2.34 11.31 1.68 13.62 1 16 C0.731875 15.443125 0.46375 14.88625 0.1875 14.3125 C-1.10122647 11.80287477 -2.52926478 9.40665764 -4 7 C-3.525625 6.401875 -3.05125 5.80375 -2.5625 5.1875 C-0.83534256 2.99617076 -0.83534256 2.99617076 0 0 Z " fill="#ECECEC" transform="translate(577,400)"/>
<path d="M0 0 C0.66 0.33 1.32 0.66 2 1 C-0.74976397 3.10447526 -3.49985279 5.20852559 -6.25 7.3125 C-7.02730469 7.90740234 -7.80460938 8.50230469 -8.60546875 9.11523438 C-9.35957031 9.69208984 -10.11367188 10.26894531 -10.890625 10.86328125 C-11.58188477 11.39219971 -12.27314453 11.92111816 -12.98535156 12.46606445 C-13.98260254 13.22536255 -13.98260254 13.22536255 -15 14 C-15.70350586 14.55969482 -16.40701172 15.11938965 -17.13183594 15.69604492 C-19 17 -19 17 -21 17 C-21 15.68 -21 14.36 -21 13 C-19.10400391 11.33666992 -19.10400391 11.33666992 -16.4765625 9.73046875 C-15.538125 9.15232422 -14.5996875 8.57417969 -13.6328125 7.97851562 C-12.64023437 7.38748047 -11.64765625 6.79644531 -10.625 6.1875 C-9.64015625 5.57712891 -8.6553125 4.96675781 -7.640625 4.33789062 C-2.23797669 1.05559676 -2.23797669 1.05559676 0 0 Z " fill="#EAEAEA" transform="translate(609,567)"/>
<path d="M0 0 C0 4.18371816 -1.76863778 5.20053714 -4.625 8.1875 C-7.75886814 11.50003667 -10.69843387 14.81635799 -13.3125 18.5625 C-15.49968406 21.60960257 -17.224909 23.11174329 -21 24 C-19.57437743 20.78393548 -17.83196915 18.53666775 -15.41015625 15.99609375 C-14.70826172 15.25552734 -14.00636719 14.51496094 -13.28320312 13.75195312 C-12.55037109 12.98818359 -11.81753906 12.22441406 -11.0625 11.4375 C-10.33353516 10.66986328 -9.60457031 9.90222656 -8.85351562 9.11132812 C-5.93374186 6.04168512 -3.00676008 2.98474951 0 0 Z " fill="#ECECEC" transform="translate(315,566)"/>
<path d="M0 0 C0.33 0.66 0.66 1.32 1 2 C0.0625 4.125 0.0625 4.125 -1 6 C-0.34 6 0.32 6 1 6 C0.01 8.97 -0.98 11.94 -2 15 C-2.66 15 -3.32 15 -4 15 C-4.33 15.66 -4.66 16.32 -5 17 C-5.66 17.33 -6.32 17.66 -7 18 C-6.68978386 11.02013687 -3.5048042 5.92708478 0 0 Z " fill="#F4F4F4" transform="translate(260,640)"/>
<path d="M0 0 C7.92 0.33 15.84 0.66 24 1 C24 1.33 24 1.66 24 2 C21.16724047 2.33896268 18.33395339 2.67129694 15.5 3 C14.31277344 3.14308594 14.31277344 3.14308594 13.1015625 3.2890625 C8.02970596 3.87107882 3.10506141 4.09367085 -2 4 C-1.34 2.68 -0.68 1.36 0 0 Z " fill="#EAEAEA" transform="translate(552,361)"/>
<path d="M0 0 C0 4 0 4 -1 7 C-2.98 7.33 -4.96 7.66 -7 8 C-7 6.35 -7 4.7 -7 3 C-7.66 3 -8.32 3 -9 3 C-9.33 3.66 -9.66 4.32 -10 5 C-10 4.34 -10 3.68 -10 3 C-10.66 2.67 -11.32 2.34 -12 2 C-10.37787941 1.47026689 -8.75218416 0.95146893 -7.125 0.4375 C-6.22007812 0.14746094 -5.31515625 -0.14257812 -4.3828125 -0.44140625 C-2 -1 -2 -1 0 0 Z " fill="#EDEDEC" transform="translate(373,699)"/>
<path d="M0 0 C0 0.66 0 1.32 0 2 C-3.72560399 3.65398375 -7.45605598 5.29673907 -11.1875 6.9375 C-12.24259766 7.40607422 -13.29769531 7.87464844 -14.38476562 8.35742188 C-15.40634766 8.80537109 -16.42792969 9.25332031 -17.48046875 9.71484375 C-18.41785889 10.12855225 -19.35524902 10.54226074 -20.32104492 10.96850586 C-22.88560265 11.9559529 -25.29431199 12.55155528 -28 13 C-23.52878698 9.45226667 -18.57267836 7.24312797 -13.4375 4.8125 C-12.47908203 4.34908203 -11.52066406 3.88566406 -10.53320312 3.40820312 C-9.15358398 2.75174805 -9.15358398 2.75174805 -7.74609375 2.08203125 C-6.90747803 1.68218018 -6.0688623 1.2823291 -5.20483398 0.87036133 C-3 0 -3 0 0 0 Z " fill="#DCDCDC" transform="translate(622,350)"/>
<path d="M0 0 C2.01136276 2.55991624 3.62845496 5.04590299 5 8 C4.34 8 3.68 8 3 8 C2.34 9.98 1.68 11.96 1 14 C-0.86005704 11.20991444 -2.1731586 9.2321982 -3 6 C-1.625 2.6875 -1.625 2.6875 0 0 Z " fill="#EEEEEE" transform="translate(462,600)"/>
<path d="M0 0 C0.33 0 0.66 0 1 0 C2.88283111 6.11920109 3.64082889 10.05813501 1 16 C-1.62107562 13.37892438 -2.2578457 11.64330292 -3 8 C-2.28319367 5.13277466 -1.21771638 2.71644424 0 0 Z " fill="#EBEBEB" transform="translate(570,320)"/>
<path d="M0 0 C0.87697176 2.86233838 1.106489 3.72046637 0 6.625 C-2.64654468 9.76777181 -5.05098102 10.18039229 -9 11 C-8.46324097 7.14896699 -6.88399077 5.68202413 -3.9375 3.25 C-3.20402344 2.63640625 -2.47054687 2.0228125 -1.71484375 1.390625 C-1.14894531 0.93171875 -0.58304688 0.4728125 0 0 Z " fill="#949492" transform="translate(695,491)"/>
<path d="M0 0 C-0.33 1.65 -0.66 3.3 -1 5 C0.32 4.01 1.64 3.02 3 2 C3.66 2.33 4.32 2.66 5 3 C5 3.66 5 4.32 5 5 C1.17010894 6.80230168 -1.78121808 7.19622241 -6 7 C-6 3 -6 3 -4.6875 1.25 C-3 0 -3 0 0 0 Z " fill="#F7F7F7" transform="translate(386,694)"/>
<path d="M0 0 C0.33 0 0.66 0 1 0 C1.66 6.27 2.32 12.54 3 19 C2.34 19.33 1.68 19.66 1 20 C1 19.34 1 18.68 1 18 C0.01 17.67 -0.98 17.34 -2 17 C-1.34 11.39 -0.68 5.78 0 0 Z " fill="#EAEAEA" transform="translate(387,578)"/>
<path d="M0 0 C11.88 0 23.76 0 36 0 C36 0.99 36 1.98 36 3 C35.01 2.67 34.02 2.34 33 2 C30.48945095 1.8470353 28.00111475 1.74304822 25.48828125 1.68359375 C24.76005661 1.66281265 24.03183197 1.64203156 23.28153992 1.62062073 C20.95862125 1.55531254 18.63559094 1.49632763 16.3125 1.4375 C14.73631665 1.39429695 13.16014452 1.35068208 11.58398438 1.30664062 C7.72277025 1.1996504 3.86144397 1.09833039 0 1 C0 0.67 0 0.34 0 0 Z " fill="#1C1C1C" transform="translate(876,499)"/>
<path d="M0 0 C0.66 0.66 1.32 1.32 2 2 C3.98821313 2.39764263 5.98944339 2.73775349 8 3 C8 3.33 8 3.66 8 4 C2.72 3.67 -2.56 3.34 -8 3 C-8.33 2.01 -8.66 1.02 -9 0 C-5.64961743 -0.83759564 -3.2704774 -1.24052591 0 0 Z " fill="#E3E3E3" transform="translate(701,326)"/>
<path d="M0 0 C0.66 0 1.32 0 2 0 C3.50156874 3.00313748 3.09281204 5.79067522 3.0625 9.125 C3.05347656 10.40632812 3.04445312 11.68765625 3.03515625 13.0078125 C3.02355469 13.99523437 3.01195312 14.98265625 3 16 C0.43383368 12.15075052 0.44902324 9.5650696 0 5 C-0.66 5 -1.32 5 -2 5 C-1.125 1.125 -1.125 1.125 0 0 Z " fill="#FBFBFB" transform="translate(251,667)"/>
<path d="M0 0 C0.66 0.33 1.32 0.66 2 1 C-2.61279631 6.14675344 -7.47771538 10.44953432 -14 13 C-14.66 12.67 -15.32 12.34 -16 12 C-15.55084229 11.67201416 -15.10168457 11.34402832 -14.63891602 11.00610352 C-12.61278476 9.52580221 -10.58763126 8.04416902 -8.5625 6.5625 C-7.50192383 5.7880957 -7.50192383 5.7880957 -6.41992188 4.99804688 C-5.74638672 4.50498047 -5.07285156 4.01191406 -4.37890625 3.50390625 C-3.7557251 3.04830322 -3.13254395 2.5927002 -2.49047852 2.12329102 C-1.03172092 1.0780929 -1.03172092 1.0780929 0 0 Z " fill="#E7E7E7" transform="translate(472,427)"/>
<path d="M0 0 C0.33 0.99 0.66 1.98 1 3 C-4.445 4.485 -4.445 4.485 -10 6 C-9.67 4.35 -9.34 2.7 -9 1 C-3.375 -1.125 -3.375 -1.125 0 0 Z " fill="#ECECEC" transform="translate(660,336)"/>
<path d="M0 0 C0.33 0.66 0.66 1.32 1 2 C-0.98 4.97 -2.96 7.94 -5 11 C-6.32 10.67 -7.64 10.34 -9 10 C-6.43571997 5.82117329 -3.98069267 2.87494471 0 0 Z " fill="#F9F9F9" transform="translate(282,607)"/>
<path d="M0 0 C9.24 0 18.48 0 28 0 C27.67 0.99 27.34 1.98 27 3 C26.28432861 2.84152588 25.56865723 2.68305176 24.83129883 2.51977539 C22.08405198 2.01543043 19.4876077 1.79773833 16.69921875 1.68359375 C15.72275391 1.64169922 14.74628906 1.59980469 13.74023438 1.55664062 C12.22913086 1.49766602 12.22913086 1.49766602 10.6875 1.4375 C9.14739258 1.37272461 9.14739258 1.37272461 7.57617188 1.30664062 C5.05090431 1.20093175 2.52554438 1.09883532 0 1 C0 0.67 0 0.34 0 0 Z " fill="#EEEEEC" transform="translate(452,474)"/>
<path d="M0 0 C0.99 0.66 1.98 1.32 3 2 C2.401875 2.5775 1.80375 3.155 1.1875 3.75 C-1.01623001 5.90766556 -1.01623001 5.90766556 -2.625 8.25 C-3.07875 8.8275 -3.5325 9.405 -4 10 C-4.66 10 -5.32 10 -6 10 C-4.34832443 6.4213696 -2.21713508 3.25179812 0 0 Z M-7 10 C-7 10.99 -7 11.98 -7 13 C-7.99 13.495 -7.99 13.495 -9 14 C-8.34 12.68 -7.68 11.36 -7 10 Z M-11 15 C-11 15.99 -11 16.98 -11 18 C-11.66 17.67 -12.32 17.34 -13 17 C-12.34 16.34 -11.68 15.68 -11 15 Z " fill="#E9E9E9" transform="translate(745,425)"/>
<path d="M0 0 C0.66 0.33 1.32 0.66 2 1 C0.12050295 4.57104439 -1.17053157 6.54744301 -5 8 C-5.66666667 6.66666667 -6.33333333 5.33333333 -7 4 C-1.7265625 0.77734375 -1.7265625 0.77734375 0 0 Z " fill="#F6F6F6" transform="translate(587,581)"/>
<path d="M0 0 C0.33 1.32 0.66 2.64 1 4 C1.66 3.34 2.32 2.68 3 2 C2.67 4.31 2.34 6.62 2 9 C1.67 8.34 1.34 7.68 1 7 C-0.98 7.99 -0.98 7.99 -3 9 C-2.25 2.25 -2.25 2.25 0 0 Z " fill="#F0F0F0" transform="translate(252,660)"/>
<path d="M0 0 C2 1 2 1 2 1 Z M-2 1 C0.6875 1.875 0.6875 1.875 3 3 C-1.75 7.875 -1.75 7.875 -4 9 C-3.67 7.35 -3.34 5.7 -3 4 C-3.66 3.67 -4.32 3.34 -5 3 C-4.01 2.34 -3.02 1.68 -2 1 Z " fill="#EEEEEE" transform="translate(564,596)"/>
<path d="M0 0 C0.33 0 0.66 0 1 0 C1.33 5.94 1.66 11.88 2 18 C1.34 18 0.68 18 0 18 C-0.33 18.66 -0.66 19.32 -1 20 C-0.67 13.4 -0.34 6.8 0 0 Z " fill="#EBEBEB" transform="translate(513,296)"/>
<path d="M0 0 C2.64 0 5.28 0 8 0 C8 1.98 8 3.96 8 6 C6.0625 5.625 6.0625 5.625 4 5 C3.67 4.34 3.34 3.68 3 3 C3.33 2.34 3.66 1.68 4 1 C2.68 0.67 1.36 0.34 0 0 Z " fill="#E6E6E6" transform="translate(477,360)"/>
<path d="M0 0 C2.28804937 1.65883579 3.56463437 2.62283307 5 5 C5.44207004 8.70298665 5.29251428 12.28831877 5 16 C4.67 16 4.34 16 4 16 C3.95101562 15.38511719 3.90203125 14.77023437 3.8515625 14.13671875 C3.77679687 13.32847656 3.70203125 12.52023437 3.625 11.6875 C3.55539062 10.88699219 3.48578125 10.08648438 3.4140625 9.26171875 C3.10435574 6.72775559 3.10435574 6.72775559 1 4 C0.34 4 -0.32 4 -1 4 C-0.67 2.68 -0.34 1.36 0 0 Z " fill="#070706" transform="translate(609,635)"/>
<path d="M0 0 C-0.99 1.485 -0.99 1.485 -2 3 C-8.93 2.505 -8.93 2.505 -16 2 C-16 1.67 -16 1.34 -16 1 C-13.70952777 0.63818911 -11.41757055 0.28576776 -9.125 -0.0625 C-7.84882813 -0.25972656 -6.57265625 -0.45695313 -5.2578125 -0.66015625 C-2 -1 -2 -1 0 0 Z " fill="#E9E9E9" transform="translate(376,606)"/>
<path d="M0 0 C1.51953125 1.17578125 1.51953125 1.17578125 3 3 C3.07421875 5.48046875 3.07421875 5.48046875 2.6875 8.1875 C2.56761719 9.08855469 2.44773437 9.98960937 2.32421875 10.91796875 C2.21722656 11.60503906 2.11023438 12.29210937 2 13 C1.01 13 0.02 13 -1 13 C-0.9278125 12.22914063 -0.855625 11.45828125 -0.78125 10.6640625 C-0.64203125 9.15972656 -0.64203125 9.15972656 -0.5 7.625 C-0.4071875 6.62726562 -0.314375 5.62953125 -0.21875 4.6015625 C0.02792947 2.10296264 0.02792947 2.10296264 0 0 Z " fill="#171717" transform="translate(696,518)"/>
<path d="M0 0 C0.66 1.32 1.32 2.64 2 4 C0.625 5.5 0.625 5.5 -1 7 C-1.66 7 -2.32 7 -3 7 C-3.33 7.66 -3.66 8.32 -4 9 C-4.33 7.35 -4.66 5.7 -5 4 C-4.34 4 -3.68 4 -3 4 C-1.36323743 2.0399719 -1.36323743 2.0399719 0 0 Z " fill="#EBEBEA" transform="translate(708,471)"/>
<path d="M0 0 C-0.62648438 0.26554687 -1.25296875 0.53109375 -1.8984375 0.8046875 C-2.71570313 1.15789062 -3.53296875 1.51109375 -4.375 1.875 C-5.18710937 2.22304688 -5.99921875 2.57109375 -6.8359375 2.9296875 C-9.13802299 3.92446067 -9.13802299 3.92446067 -11 6 C-11.99 5.67 -12.98 5.34 -14 5 C-10.47470999 0.64522999 -5.39743041 -1.75564769 0 0 Z " fill="#070707" transform="translate(543,368)"/>
<path d="M0 0 C0.33 0 0.66 0 1 0 C1.33 2.97 1.66 5.94 2 9 C-0.475 10.485 -0.475 10.485 -3 12 C-2.01 8.04 -1.02 4.08 0 0 Z M-6 13 C-4 14 -4 14 -4 14 Z " fill="#E7E7E7" transform="translate(615,617)"/>
<path d="M0 0 C0 3.96130371 -1.34877125 4.82914401 -4 7.6875 C-4.7425 8.49574219 -5.485 9.30398438 -6.25 10.13671875 C-6.8275 10.75160156 -7.405 11.36648438 -8 12 C-8.66 11.34 -9.32 10.68 -10 10 C-6.7 6.7 -3.4 3.4 0 0 Z " fill="#CCCCCC" transform="translate(315,566)"/>
<path d="M0 0 C0.33 0.66 0.66 1.32 1 2 C3.01669827 3.13350534 3.01669827 3.13350534 5 4 C3.68 4.33 2.36 4.66 1 5 C1 5.66 1 6.32 1 7 C0.01 6.67 -0.98 6.34 -2 6 C-2.33 5.34 -2.66 4.68 -3 4 C-2.34 4 -1.68 4 -1 4 C-0.67 2.68 -0.34 1.36 0 0 Z " fill="#F7F7F7" transform="translate(373,698)"/>
<path d="M0 0 C0.33 0 0.66 0 1 0 C1 3.63 1 7.26 1 11 C0.01 10.67 -0.98 10.34 -2 10 C-1.85950482 8.52031676 -1.71245174 7.04125484 -1.5625 5.5625 C-1.48128906 4.73878906 -1.40007812 3.91507813 -1.31640625 3.06640625 C-1 1 -1 1 0 0 Z " fill="#1D1D1D" transform="translate(390,619)"/>
<path d="M0 0 C0.66 0.66 1.32 1.32 2 2 C1.67 2.66 1.34 3.32 1 4 C-1.97 3.505 -1.97 3.505 -5 3 C-5 2.34 -5 1.68 -5 1 C-5.99 0.67 -6.98 0.34 -8 0 C-4.71303767 -0.79953138 -3.28976808 -1.09658936 0 0 Z " fill="#E3E3E3" transform="translate(690,328)"/>
<path d="M0 0 C0.94875 0.350625 1.8975 0.70125 2.875 1.0625 C2.875 2.0525 2.875 3.0425 2.875 4.0625 C1.885 4.3925 0.895 4.7225 -0.125 5.0625 C-0.57875 4.5675 -1.0325 4.0725 -1.5 3.5625 C-3.00135519 1.83640663 -3.00135519 1.83640663 -5.125 2.0625 C-5.125 1.4025 -5.125 0.7425 -5.125 0.0625 C-3.125 -0.9375 -3.125 -0.9375 0 0 Z " fill="#E9E9E9" transform="translate(495.125,641.9375)"/>
<path d="M0 0 C0.66 0 1.32 0 2 0 C0.515 5.445 0.515 5.445 -1 11 C-1.33 11 -1.66 11 -2 11 C-2.05399736 9.54207116 -2.09279177 8.08357288 -2.125 6.625 C-2.15980469 5.40683594 -2.15980469 5.40683594 -2.1953125 4.1640625 C-2 2 -2 2 0 0 Z " fill="#EDEDED" transform="translate(415,405)"/>
<path d="M0 0 C-0.33 0.66 -0.66 1.32 -1 2 C-3.32156597 2.40729228 -5.6568787 2.74438677 -8 3 C-8 2.01 -8 1.02 -8 0 C-4.94736336 -0.98120464 -3.05263664 -0.98120464 0 0 Z " fill="#1C1C1C" transform="translate(684,334)"/>
<path d="M0 0 C3.0831351 1.19899698 6.06279492 2.47700477 9 4 C9 4.66 9 5.32 9 6 C6.07606119 5.37344168 3.55170871 4.5838192 1 3 C0.67 2.01 0.34 1.02 0 0 Z " fill="#ECECEB" transform="translate(435,530)"/>
<path d="M0 0 C2.7839183 1.39195915 2.97898997 3.15575779 4 6 C2.125 6.625 2.125 6.625 0 7 C-0.66 6.34 -1.32 5.68 -2 5 C-1.34 3.35 -0.68 1.7 0 0 Z " fill="#E4E4E4" transform="translate(577,400)"/>
<path d="M0 0 C-0.99 0.495 -0.99 0.495 -2 1 C-2 1.66 -2 2.32 -2 3 C-3.65 3.33 -5.3 3.66 -7 4 C-6.6875 2.0625 -6.6875 2.0625 -6 0 C-3 -1 -3 -1 0 0 Z " fill="#F1F1F1" transform="translate(652,339)"/>
<path d="M0 0 C1.6396875 0.0928125 1.6396875 0.0928125 3.3125 0.1875 C2.9825 1.1775 2.6525 2.1675 2.3125 3.1875 C-0.6575 3.1875 -3.6275 3.1875 -6.6875 3.1875 C-3.6875 0.1875 -3.6875 0.1875 0 0 Z " fill="#1C1C1A" transform="translate(712.6875,328.8125)"/>
<path d="M0 0 C0.66 0.33 1.32 0.66 2 1 C1.34 3.97 0.68 6.94 0 10 C-2.14915785 6.77626323 -2.38286803 5.73296326 -2 2 C-1.34 1.34 -0.68 0.68 0 0 Z " fill="#E3E3E3" transform="translate(616,638)"/>
<path d="M0 0 C2.64 0 5.28 0 8 0 C8.33 0.99 8.66 1.98 9 3 C5.625 3.1875 5.625 3.1875 2 3 C1.34 2.01 0.68 1.02 0 0 Z " fill="#161616" transform="translate(360,608)"/>
<path d="M0 0 C0.33 0 0.66 0 1 0 C1 2.64 1 5.28 1 8 C-0.65 8 -2.3 8 -4 8 C-3.2884375 7.13375 -3.2884375 7.13375 -2.5625 6.25 C-1.0515133 4.07417916 -0.45963849 2.57397552 0 0 Z " fill="#EBEBEB" transform="translate(698,527)"/>
<path d="M0 0 C-2.93828597 2.50298434 -5.17902761 3.46930939 -9 4 C-8.67 3.01 -8.34 2.02 -8 1 C-5.29120665 -0.35439668 -2.99066732 -0.06501451 0 0 Z " fill="#1B1B1B" transform="translate(613,353)"/>
<path d="M0 0 C0.66 0.33 1.32 0.66 2 1 C1.67 1.99 1.34 2.98 1 4 C1.66 4.33 2.32 4.66 3 5 C1.68 5.33 0.36 5.66 -1 6 C-1.33 4.35 -1.66 2.7 -2 1 C-1.34 0.67 -0.68 0.34 0 0 Z " fill="#E9E9E9" transform="translate(485,645)"/>
<path d="M0 0 C-0.33 0.66 -0.66 1.32 -1 2 C-4.3 1.67 -7.6 1.34 -11 1 C-11 0.67 -11 0.34 -11 0 C-3.375 -1.125 -3.375 -1.125 0 0 Z " fill="#DCDCDB" transform="translate(610,632)"/>
<path d="M0 0 C0.66 0.99 1.32 1.98 2 3 C0.68 4.65 -0.64 6.3 -2 8 C-2 7.34 -2 6.68 -2 6 C-2.66 5.67 -3.32 5.34 -4 5 C-2.68 3.35 -1.36 1.7 0 0 Z " fill="#161616" transform="translate(301,584)"/>
<path d="M0 0 C0.99 0.33 1.98 0.66 3 1 C1.02 3.97 1.02 3.97 -1 7 C-1.66 6.67 -2.32 6.34 -3 6 C-2.67 5.01 -2.34 4.02 -2 3 C-1.34 3 -0.68 3 0 3 C0 2.01 0 1.02 0 0 Z " fill="#E9E9E7" transform="translate(705,533)"/>
<path d="M0 0 C0.33 0 0.66 0 1 0 C1 2.64 1 5.28 1 8 C0.01 7.67 -0.98 7.34 -2 7 C-2 5.68 -2 4.36 -2 3 C-1.34 3 -0.68 3 0 3 C0 2.01 0 1.02 0 0 Z " fill="#171717" transform="translate(163,520)"/>
<path d="M0 0 C0.66 0.33 1.32 0.66 2 1 C1.25 2.9375 1.25 2.9375 0 5 C-2.125 5.75 -2.125 5.75 -4 6 C-3.67 4.35 -3.34 2.7 -3 1 C-2.01 0.67 -1.02 0.34 0 0 Z " fill="#E0E0E0" transform="translate(654,336)"/>
</svg>
