<?xml version="1.0" encoding="UTF-8"?>
<svg version="1.1" xmlns="http://www.w3.org/2000/svg" width="479" height="418">
<path d="M0 0 C3.44246086 1.72123043 5.40418623 2.99794956 7.375 6.3125 C8.42527947 10.82870172 8.69491596 14.47118488 6.75 18.75 C5 21 5 21 2.92211914 22.19091797 C0.67083896 23.938214 0.67083896 23.938214 0.50170898 27.22705078 C0.49985596 28.53657715 0.49800293 29.84610352 0.49609375 31.1953125 C0.48667252 31.90219208 0.47725128 32.60907166 0.46754456 33.33737183 C0.43887643 35.6002075 0.43581407 37.86199756 0.4375 40.125 C0.41542052 53.76128777 0.13615443 64.33912833 -9.65625 74.8515625 C-11.06390625 76.22441406 -11.06390625 76.22441406 -12.5 77.625 C-13.4384375 78.54539062 -14.376875 79.46578125 -15.34375 80.4140625 C-18 83 -18 83 -20.28125 84.8984375 C-25.13349933 90.83141509 -23.49895633 103.56344776 -23 111 C-21.91552706 117.62622915 -17.71405194 122.44497632 -13 127 C-12.34 127.33 -11.68 127.66 -11 128 C-10.78085938 127.13503906 -10.56171875 126.27007812 -10.3359375 125.37890625 C-8.78303042 121.45123192 -6.53021056 118.90005024 -3.625 115.9375 C-1.73889338 113.96818279 0.1328458 111.98752947 2 110 C2.73476562 109.30003906 3.46953125 108.60007812 4.2265625 107.87890625 C9.87191089 98.71454113 8.18425192 85.77645967 8 75.375 C7.51609773 47.93082827 7.51609773 47.93082827 16.73339844 38.16308594 C19.22096985 35.75157101 21.7669487 33.41588981 24.35546875 31.11328125 C26.0947721 29.47650525 27.63946755 27.96373839 29 26 C29.09149023 22.84996314 29.09149023 22.84996314 28 20 C27.13148148 12.55555556 27.13148148 12.55555556 29.046875 9.125 C31.46269913 6.16916812 33.35795694 4.17728253 37.20703125 3.76171875 C44.22118281 3.56191533 44.22118281 3.56191533 48 5.6875 C51.36508336 9.57837763 52.21607402 12.40969295 51.9375 17.5 C51.31790042 22.03365545 49.64601568 24.15432923 46 27 C43.29120665 28.35439668 40.99066732 28.06501451 38 28 C37.73952881 28.58861816 37.47905762 29.17723633 37.21069336 29.78369141 C35.92286154 32.14121051 34.57041053 33.61529386 32.62890625 35.4609375 C31.97212891 36.09773438 31.31535156 36.73453125 30.63867188 37.390625 C29.26049929 38.70786239 27.88030524 40.02298821 26.49804688 41.3359375 C25.83998047 41.9753125 25.18191406 42.6146875 24.50390625 43.2734375 C23.90392822 43.84497559 23.3039502 44.41651367 22.68579102 45.00537109 C17.67014224 50.93988963 17.57108776 56.33801521 17.59375 63.76953125 C17.58291382 64.80510666 17.57207764 65.84068207 17.56091309 66.90763855 C17.52673368 70.20932269 17.5110808 73.51066247 17.5 76.8125 C17.48536413 81.15267156 17.45153737 85.49208304 17.40625 89.83203125 C17.40927124 90.81669876 17.41229248 91.80136627 17.41540527 92.81587219 C17.32218446 101.49111806 15.97253831 108.73404173 9.6875 115.0625 C6.84770127 118.04567619 4.0834774 120.99011544 1.5625 124.25 C1.11003906 124.83265625 0.65757812 125.4153125 0.19140625 126.015625 C-2.65531633 130.75705146 -3.27215907 135.44298856 -3.4140625 140.890625 C-3.43324738 141.59193039 -3.45243225 142.29323578 -3.47219849 143.01579285 C-3.53343727 145.42706574 -3.57921486 147.83838733 -3.625 150.25 C-3.64534302 151.09829376 -3.66568604 151.94658752 -3.68664551 152.82058716 C-4.01582862 166.59240304 -4.0001781 180.3550597 -3.90185165 194.12906265 C-3.88280858 196.91854266 -3.86689225 199.70802259 -3.8520813 202.49752808 C-3.84708807 203.42404364 -3.84209484 204.3505592 -3.8369503 205.30515099 C-3.82682111 207.18567535 -3.81680275 209.06620031 -3.8068943 210.94672585 C-3.77451172 216.60787655 -3.71748002 222.26818504 -3.64398766 227.92894268 C-3.60238288 231.51533115 -3.5812665 235.1016419 -3.56518173 238.6882267 C-3.55304326 240.38424684 -3.53199478 242.08022819 -3.50174332 243.77602196 C-3.4609968 246.11736451 -3.45094884 248.45693369 -3.44824219 250.79858398 C-3.42869791 251.48865665 -3.40915363 252.17872932 -3.38901711 252.88971329 C-3.40545654 254.80882263 -3.40545654 254.80882263 -4 258 C-6.28448486 260.0750885 -6.28448486 260.0750885 -9 261 C-11.1697197 260.05780697 -11.1697197 260.05780697 -13 259 C-13.00146656 258.4095414 -13.00293312 257.81908279 -13.00444412 257.21073151 C-13.04155149 242.82066273 -13.1006181 228.43080677 -13.18390274 214.0409317 C-13.22365384 207.08197155 -13.25606616 200.12312383 -13.27099609 193.1640625 C-13.28542863 186.44657216 -13.32058453 179.72948059 -13.36830902 173.01213074 C-13.38313176 170.45097383 -13.39104152 167.88976717 -13.39188385 165.3285675 C-13.39425241 161.7375484 -13.42132596 158.14749333 -13.45410156 154.55664062 C-13.4490712 153.50071716 -13.44404083 152.4447937 -13.43885803 151.35687256 C-13.57314555 141.82989518 -16.41421971 136.17369387 -23.0625 129.375 C-29.76577743 122.50036059 -32.13343926 116.50599122 -32.11010742 107.00390625 C-32.11068649 105.81917725 -32.11126556 104.63444824 -32.11186218 103.41381836 C-32.10869743 101.50741577 -32.10869743 101.50741577 -32.10546875 99.5625 C-32.11891854 96.86716668 -32.13382513 94.17187503 -32.15039062 91.4765625 C-32.17472738 87.22999903 -32.19039367 82.98392831 -32.17504883 78.73730469 C-32.16564298 75.96312428 -32.17195417 73.18986314 -32.19612122 70.41577148 C-32.21865337 67.80600531 -32.2185203 65.19592423 -32.19340515 62.58618164 C-32.05696953 56.51849711 -32.05696953 56.51849711 -34.35171509 51.12939453 C-36.13307965 49.59387404 -36.13307965 49.59387404 -39 48 C-40.74221711 44.51556578 -40.58675154 40.80112955 -40 37 C-38.29748281 33.92530477 -36.18773492 31.59386746 -33 30 C-28.90842645 29.48487383 -24.76410454 29.05632731 -21.04296875 31.046875 C-18.24767993 33.35927938 -16.17313406 35.30528387 -15.796875 38.98828125 C-15.70020382 43.78156066 -15.68333328 47.225862 -19 51 C-20.65 51.66 -22.3 52.32 -24 53 C-23.34 59.6 -22.68 66.2 -22 73 C-14.73609305 67.06780933 -10.25636154 62.61357902 -9 53 C-8.71345487 48.1272819 -8.67762968 43.2552066 -8.625 38.375 C-8.59672119 37.37871582 -8.59672119 37.37871582 -8.56787109 36.36230469 C-8.513108 34.41654816 -8.49436536 32.46988312 -8.4765625 30.5234375 C-8.45674316 29.36763184 -8.43692383 28.21182617 -8.41650391 27.02099609 C-8.73214537 23.80099124 -8.73214537 23.80099124 -11.45068359 21.70166016 C-12.29195801 21.1401123 -13.13323242 20.57856445 -14 20 C-16.66416489 16.44778015 -16.54398498 12.26688218 -16 8 C-13.03507327 0.97780511 -7.37911318 -1.29964811 0 0 Z M-7 9 C-7.76956136 11.34533951 -7.76956136 11.34533951 -8 14 C-6.93654948 15.98029682 -6.93654948 15.98029682 -5 17 C-2.83700789 16.77242269 -2.83700789 16.77242269 -1 16 C-0.23043864 13.65466049 -0.23043864 13.65466049 0 11 C-1.27159652 9.14397385 -1.27159652 9.14397385 -3 8 C-4.36893239 7.94729537 -4.36893239 7.94729537 -7 9 Z M36 13 C36.33 15.31 36.66 17.62 37 20 C38.98 20 40.96 20 43 20 C43.76716851 17.14921909 43.76716851 17.14921909 44 14 C42.81104764 12.05967596 42.81104764 12.05967596 41 11 C38.67642489 10.81509993 38.67642489 10.81509993 36 13 Z M-30 38 C-30.66 39.65 -31.32 41.3 -32 43 C-29.525 44.485 -29.525 44.485 -27 46 C-26.01 45.34 -25.02 44.68 -24 44 C-24.33 42.35 -24.66 40.7 -25 39 C-26.65 38.67 -28.3 38.34 -30 38 Z " fill="#389464" transform="translate(240,28)"/>
<path d="M0 0 C3.72692572 3.28846387 4.95220532 6.49264256 5.5625 11.375 C5.03638008 15.58395939 3.79508809 17.611559 1.125 20.875 C0.42503906 21.28621094 -0.27492188 21.69742188 -0.99609375 22.12109375 C-3.17792968 23.7907563 -3.17792968 23.7907563 -3.30078125 26.83203125 C-3.24470703 28.74048828 -3.24470703 28.74048828 -3.1875 30.6875 C-3.16840576 31.40309082 -3.14931152 32.11868164 -3.12963867 32.85595703 C-3.08256859 34.53165205 -3.02689994 36.20711724 -2.96484375 37.88232422 C-2.86072907 41.3503616 -2.83713443 44.81566062 -2.8125 48.28515625 C-2.772513 50.94013 -2.73083704 53.59507882 -2.6875 56.25 C-2.68210205 57.52077393 -2.6767041 58.79154785 -2.67114258 60.10083008 C-2.45477712 69.16980295 -1.13082289 77.35711079 5.29370117 84.17724609 C5.89802979 84.73750488 6.5023584 85.29776367 7.125 85.875 C7.10558523 81.94141548 7.05389348 78.00970621 6.97241211 74.0769043 C6.93783954 72.08209134 6.92875406 70.08688986 6.91992188 68.09179688 C6.87641602 66.21137695 6.87641602 66.21137695 6.83203125 64.29296875 C6.8163208 63.13563232 6.80061035 61.9782959 6.78442383 60.78588867 C6.42039122 57.67925414 6.42039122 57.67925414 3.69799805 56.14575195 C2.84890869 55.72640381 1.99981934 55.30705566 1.125 54.875 C-1.18676212 51.48441556 -1.875 49.49114912 -1.875 45.375 C-0.41934187 40.28019653 1.86563961 37.24250761 6.5 34.4375 C10.62660411 33.55322769 14.2289594 33.66187335 17.87109375 35.9921875 C20.7474969 38.32366056 22.87330872 40.07720518 23.3984375 43.828125 C23.58829043 48.12172199 23.5592668 50.97082964 20.75 54.375 C18.125 56.875 18.125 56.875 16.125 57.875 C16.05007806 63.20944247 15.99603829 68.54356946 15.96020508 73.87841797 C15.94524551 75.68804265 15.92487043 77.4976319 15.89868164 79.30712891 C15.67702675 95.03158732 16.27035948 109.85634066 27.26074219 122.29150391 C29.62324007 124.65052899 32.04512893 126.92495598 34.5 129.1875 C46.34806908 140.57458542 55.09081354 152.65084254 55.46557617 169.70166016 C55.46510659 172.27250987 55.44848005 174.8433938 55.41796875 177.4140625 C55.41236007 178.78982069 55.408096 180.16558495 55.40510559 181.54135132 C55.39375667 185.12857165 55.3643781 188.71541635 55.33099365 192.30249023 C55.30007545 195.97634808 55.28655422 199.65026777 55.27148438 203.32421875 C55.23949645 210.50798209 55.18842413 217.69143803 55.125 224.875 C52.25 225.5 52.25 225.5 49.125 225.875 C46.53076577 223.28076577 46.87431857 222.23150086 46.86962891 218.62182617 C46.86266998 217.52275436 46.85571106 216.42368256 46.84854126 215.29130554 C46.84953827 214.0956044 46.85053528 212.89990326 46.8515625 211.66796875 C46.83125102 209.13606347 46.81039986 206.60416247 46.7890625 204.07226562 C46.76657816 200.08105087 46.75004088 196.09015177 46.74414062 192.09887695 C46.73453693 188.24659419 46.70063755 184.3950774 46.6640625 180.54296875 C46.67163071 178.78281685 46.67163071 178.78281685 46.67935181 176.98710632 C46.44725537 157.14744258 37.49262316 145.24262316 24.125 131.875 C21.992329 131.64670074 21.992329 131.64670074 19.5390625 131.78515625 C18.61391846 131.80755371 17.68877441 131.82995117 16.7355957 131.85302734 C15.75034912 131.88090332 14.76510254 131.9087793 13.75 131.9375 C-4.0342671 132.15785378 -16.44415725 127.70992655 -29.43359375 115.30078125 C-32.11724101 112.67172208 -34.7037489 109.95973187 -37.28515625 107.23046875 C-38.45292603 106.01472168 -38.45292603 106.01472168 -39.64428711 104.77441406 C-41.18375484 103.16554345 -42.7051087 101.5390895 -44.20532227 99.89355469 C-48.77521355 95.12434872 -52.04640281 92.91929448 -58.69433594 92.26611328 C-61.23735093 91.8100105 -62.22935471 91.16838015 -64 89.3125 C-66.38027427 84.94866384 -66.82362083 81.73994535 -65.875 76.875 C-64.26785226 73.71810266 -62.90061766 71.68084244 -60.125 69.5 C-54.90862133 68.05100592 -51.22603481 68.17446343 -46.5 70.625 C-42.70833333 73.875 -42.70833333 73.875 -41.875 76.875 C-41.35376131 83.69336551 -41.35376131 83.69336551 -42.66967773 86.67651367 C-43.14183799 89.08695173 -43.14183799 89.08695173 -41.05175781 91.3293457 C-40.15295898 92.22741943 -39.25416016 93.12549316 -38.328125 94.05078125 C-37.59937164 94.78315254 -37.59937164 94.78315254 -36.855896 95.53031921 C-35.81931058 96.5659236 -34.77647589 97.59530409 -33.72802734 98.61889648 C-32.15701001 100.15617738 -30.61078985 101.71531702 -29.06640625 103.27929688 C-15.27664026 117.04849411 -3.06294457 122.19223878 16.125 122.875 C15.73828125 122.30394531 15.3515625 121.73289062 14.953125 121.14453125 C11.83912654 116.29625147 9.74030135 111.97330947 8.3125 106.375 C6.57908102 100.17693465 3.76899675 96.68159357 -0.69140625 92.140625 C-10.28885478 82.18262832 -12.04464548 69.74260053 -11.97265625 56.4453125 C-11.9712413 55.45498016 -11.96982635 54.46464783 -11.96836853 53.44430542 C-11.96279252 50.29617227 -11.95024442 47.14811148 -11.9375 44 C-11.9324819 41.85937603 -11.92791954 39.71875094 -11.92382812 37.578125 C-11.91283094 32.34372551 -11.89611675 27.10936793 -11.875 21.875 C-12.66261719 21.59011719 -13.45023438 21.30523437 -14.26171875 21.01171875 C-17.66124273 19.53300204 -18.44211608 18.26867245 -19.875 14.875 C-20.44296579 9.66864695 -19.76368756 6.2578363 -16.875 1.875 C-12.06628639 -2.3679826 -5.75297081 -2.25116249 0 0 Z M-8.875 6.875 C-11.16228734 8.71383881 -11.16228734 8.71383881 -11 11.5 C-10.95875 12.28375 -10.9175 13.0675 -10.875 13.875 C-8.895 14.865 -8.895 14.865 -6.875 15.875 C-5.885 15.215 -4.895 14.555 -3.875 13.875 C-3.45833333 11.375 -3.45833333 11.375 -3.875 8.875 C-4.535 8.215 -5.195 7.555 -5.875 6.875 C-6.865 6.875 -7.855 6.875 -8.875 6.875 Z M9.125 42.875 C8.465 43.535 7.805 44.195 7.125 44.875 C7.44541397 47.47780568 7.44541397 47.47780568 8.125 49.875 C9.775 50.205 11.425 50.535 13.125 50.875 C15.43171915 48.15950846 15.43171915 48.15950846 14.75 45.6875 C14.54375 45.089375 14.3375 44.49125 14.125 43.875 C11.72780568 43.19541397 11.72780568 43.19541397 9.125 42.875 Z M-55.875 76.875 C-56.535 77.535 -57.195 78.195 -57.875 78.875 C-57.55458603 81.47780568 -57.55458603 81.47780568 -56.875 83.875 C-54.47780568 84.55458603 -54.47780568 84.55458603 -51.875 84.875 C-51.215 84.215 -50.555 83.555 -49.875 82.875 C-50.19541397 80.27219432 -50.19541397 80.27219432 -50.875 77.875 C-53.27219432 77.19541397 -53.27219432 77.19541397 -55.875 76.875 Z " fill="#379364" transform="translate(165.875,42.125)"/>
<path d="M0 0 C4.03224899 4.13563999 5.35239028 7.09339082 5.2890625 12.8984375 C4.82122304 16.29975682 3.15733871 18.41119355 1 21 C0.01 21.66 -0.98 22.32 -2 23 C-2.45316023 24.84431259 -2.45316023 24.84431259 -2.38476562 26.98388672 C-2.39487671 27.80589569 -2.40498779 28.62790466 -2.41540527 29.474823 C-2.41238403 30.36742828 -2.40936279 31.26003357 -2.40625 32.1796875 C-2.42250427 33.56439743 -2.42250427 33.56439743 -2.43908691 34.9770813 C-2.47344539 37.943124 -2.48893921 40.90878438 -2.5 43.875 C-2.63604353 79.70768283 -2.63604353 79.70768283 -16.5625 93.75 C-20.84066628 98.2359834 -22.62630843 102.75445309 -24.31738281 108.5793457 C-25.82683868 113.76194397 -27.87688958 117.62764541 -31 122 C-9.91298296 121.24966442 2.0048391 114.713218 16.625 99.625 C17.73472761 98.4951604 18.84539883 97.36624679 19.95703125 96.23828125 C22.64900206 93.50272532 25.32795065 90.75501243 28 88 C27.67 87.01 27.34 86.02 27 85 C26.44834853 80.25218 26.55546237 76.87319891 28.75 72.5625 C31.94815134 68.92016097 33.51283321 68.1683585 38.3125 67.625 C43.01593465 68.10331539 45.14557155 69.27922698 49 72 C51.63671571 76.16461388 51.53025116 80.21918711 51 85 C49.53893449 88.95347139 48.37013794 89.80122222 44.625 91.8125 C41 93 41 93 38.6237793 92.74780273 C34.74107379 93.1210078 32.9303499 95.50445789 30.39453125 98.22265625 C29.8704216 98.76095566 29.34631195 99.29925507 28.80632019 99.85386658 C27.12934733 101.57861732 25.46982345 103.3188752 23.8125 105.0625 C12.15142543 117.2648277 0.46212485 128.60568604 -17 131 C-19.70058833 130.98055314 -22.36304904 130.80448794 -25.05664062 130.61499023 C-34.30605641 129.83500545 -34.30605641 129.83500545 -42.6640625 133.125 C-45.48785884 135.92545918 -47.75889277 138.71898506 -50 142 C-50.928125 143.23169922 -50.928125 143.23169922 -51.875 144.48828125 C-60.23422601 156.12287706 -61.27628955 168.74709279 -61.34375 182.6953125 C-61.3583728 183.84998016 -61.37299561 185.00464783 -61.38806152 186.19430542 C-61.4498638 191.08418251 -61.49023194 195.97417265 -61.53173828 200.86425781 C-61.56531741 204.45391421 -61.61041227 208.04329518 -61.65625 211.6328125 C-61.6615271 212.74415558 -61.6668042 213.85549866 -61.67224121 215.0005188 C-61.68565552 216.02273529 -61.69906982 217.04495178 -61.71289062 218.09814453 C-61.72018188 218.99904816 -61.72747314 219.89995178 -61.73498535 220.82815552 C-62 223 -62 223 -64 225 C-68.55555556 224.44444444 -68.55555556 224.44444444 -70 223 C-70.11486382 221.16173821 -70.15965602 219.31906017 -70.17700195 217.47729492 C-70.18983719 216.29483688 -70.20267242 215.11237885 -70.21589661 213.89408875 C-70.22328354 212.60259415 -70.23067047 211.31109955 -70.23828125 209.98046875 C-70.24235678 209.32337732 -70.2464323 208.6662859 -70.25063133 207.98928261 C-70.27153643 204.50010109 -70.28580931 201.01095921 -70.29516602 197.52172852 C-70.30613903 193.94553245 -70.34041727 190.36997454 -70.38033772 186.79400158 C-70.40673555 184.02355445 -70.4148789 181.25325258 -70.41844749 178.48269081 C-70.42558831 176.53314407 -70.45194584 174.58369748 -70.47883606 172.63432312 C-70.43641273 154.98482937 -63.05812135 142.3784152 -51 130 C-49.10513522 128.16566562 -47.20928128 126.33235257 -45.3125 124.5 C-33.00559614 112.22752105 -30.54832114 99.17134427 -30.44335938 82.32617188 C-30.44360107 81.4617749 -30.44384277 80.59737793 -30.4440918 79.70678711 C-30.43744902 77.04205024 -30.38257419 74.38089078 -30.32617188 71.71679688 C-30.31738168 70.01042925 -30.31141953 68.30404418 -30.30859375 66.59765625 C-30.2870372 65.80802994 -30.26548065 65.01840363 -30.24327087 64.20484924 C-30.26418575 59.96933526 -30.26418575 59.96933526 -32.34719849 56.42697144 C-33.83674768 55.20568414 -35.41563667 54.09548725 -37 53 C-38.72875745 49.54248509 -38.34786254 45.78710724 -38 42 C-36.59445792 38.19676848 -35.33609795 37.20838073 -31.875 35.0625 C-27.37837218 33.38223143 -23.36777236 34.2596497 -19 36 C-16.0423527 38.29217666 -15.18402722 39.44791835 -14 43 C-13.32804012 49.83159214 -13.32804012 49.83159214 -15.046875 52.8203125 C-16.82685092 54.98769495 -18.4747265 56.73736325 -21 58 C-21.33 66.91 -21.66 75.82 -22 85 C-18.47864166 81.47864166 -17.15563681 79.80404809 -15.3125 75.4375 C-14.68794922 74.01244141 -14.68794922 74.01244141 -14.05078125 72.55859375 C-11.22214152 62.97907408 -11.69732079 52.42020339 -11.5949707 42.49121094 C-11.57317316 40.9027766 -11.53882101 39.31446892 -11.49243164 37.7265625 C-11.42553737 35.40311731 -11.39802679 33.082083 -11.37890625 30.7578125 C-11.35107559 30.05254425 -11.32324493 29.347276 -11.29457092 28.62063599 C-11.30627526 25.81597012 -11.42930527 23.64851495 -13.32736206 21.49163818 C-14.83163275 20.25967454 -16.41394493 19.12471954 -18 18 C-19.86933306 14.91153669 -20.00349989 13.19249418 -19.9375 9.5625 C-18.79108346 5.20611716 -17.24719852 3.10287859 -14 0 C-9.13725768 -2.59346257 -4.91421057 -2.2527831 0 0 Z M-9 7 C-9.66 7.66 -10.32 8.32 -11 9 C-10.67958603 11.60280568 -10.67958603 11.60280568 -10 14 C-8.16299211 14.77242269 -8.16299211 14.77242269 -6 15 C-4.08333333 13.91666667 -4.08333333 13.91666667 -3 12 C-3.22757731 9.83700789 -3.22757731 9.83700789 -4 8 C-6.39719432 7.32041397 -6.39719432 7.32041397 -9 7 Z M-30 44 C-29.67 45.98 -29.34 47.96 -29 50 C-27.15274948 50.69159401 -27.15274948 50.69159401 -25 51 C-24.01 50.34 -23.02 49.68 -22 49 C-21.66656449 46.45792029 -21.66656449 46.45792029 -22 44 C-23.05224667 42.72443182 -23.05224667 42.72443182 -25.4375 42.875 C-27.98978622 42.82693324 -27.98978622 42.82693324 -30 44 Z M35 78 C35.33 79.65 35.66 81.3 36 83 C38.39719432 83.67958603 38.39719432 83.67958603 41 84 C41.66 83.34 42.32 82.68 43 82 C42.67958603 79.39719432 42.67958603 79.39719432 42 77 C38.51418144 75.7979936 38.32007656 75.78661563 35 78 Z " fill="#379264" transform="translate(312,43)"/>
<path d="M0 0 C5.6925 -0.12375 5.6925 -0.12375 11.5 -0.25 C12.68013672 -0.28641602 13.86027344 -0.32283203 15.07617188 -0.36035156 C23.07165662 -0.44403152 28.20488755 0.788751 34.4375 6.0625 C37.32009754 9.63692095 37.32238252 13.23726022 37.30078125 17.63671875 C36.81743565 21.43443418 35.13650778 23.8620042 33 27 C32.01 27 31.02 27 30 27 C30.433125 27.62648438 30.86625 28.25296875 31.3125 28.8984375 C32.1478125 30.12433594 32.1478125 30.12433594 33 31.375 C33.556875 32.18710937 34.11375 32.99921875 34.6875 33.8359375 C36 36 36 36 36 38 C36.66 38 37.32 38 38 38 C38.07734375 37.19691406 38.1546875 36.39382813 38.234375 35.56640625 C39.22427264 30.95530142 41.15540993 27.13973186 43.25 22.9375 C46.91750492 15.41076808 50.18083084 7.89084031 53 0 C55.10241603 -0.13496251 57.2072961 -0.23197307 59.3125 -0.3125 C60.48425781 -0.37050781 61.65601563 -0.42851562 62.86328125 -0.48828125 C66 0 66 0 67.83984375 2.30859375 C68.99211544 4.98170888 70.00322234 7.68586027 70.984375 10.42578125 C72.6003205 14.52158158 74.51152698 18.48091104 76.39941406 22.45654297 C82 34.26863147 82 34.26863147 82 38 C82.66 38 83.32 38 84 38 C84 38.99 84 39.98 84 41 C79.71 41.33 75.42 41.66 71 42 C68 36.25 68 36.25 68 34 C65.39127531 34.00600397 62.79454299 34.05326709 60.1875 34.125 C59.44951172 34.12242187 58.71152344 34.11984375 57.95117188 34.1171875 C55.49926004 34.1439914 55.49926004 34.1439914 52 35 C50.33015897 37.95941426 50.33015897 37.95941426 49 41 C44.77029892 42.30846868 40.40759428 42.02899733 36 42 C34.3603125 42.05027344 34.3603125 42.05027344 32.6875 42.1015625 C25.15767188 42.00743965 25.15767188 42.00743965 21.953125 39.21875 C19.96227725 36.60220725 18.46586777 33.93173553 17 31 C15.68 30.67 14.36 30.34 13 30 C13 33.63 13 37.26 13 41 C8.71 41 4.42 41 0 41 C0 27.47 0 13.94 0 0 Z M13 11 C13 13.97 13 16.94 13 20 C14.8871875 20.061875 14.8871875 20.061875 16.8125 20.125 C17.52019531 20.14820313 18.22789063 20.17140625 18.95703125 20.1953125 C21.31359719 20.13254462 21.31359719 20.13254462 24 18 C23.65772428 15.02934491 23.65772428 15.02934491 23 12 C20.71294169 10.85647084 19.40735238 10.89665561 16.875 10.9375 C14.956875 10.9684375 14.956875 10.9684375 13 11 Z M59 17 C57.515 20.465 57.515 20.465 56 24 C58.31 24 60.62 24 63 24 C62.39816251 21.97954558 61.72693904 19.97888961 61 18 C60.34 17.67 59.68 17.34 59 17 Z " fill="#DDDDDD" transform="translate(104,336)"/>
<path d="M0 0 C5.6925 -0.12375 5.6925 -0.12375 11.5 -0.25 C12.68013672 -0.28641602 13.86027344 -0.32283203 15.07617188 -0.36035156 C22.47287164 -0.43776469 27.99139199 0.48238718 33.65039062 5.44824219 C36.80390642 9.07410079 36.32303839 13.72120357 36.29296875 18.26171875 C35.86669266 22.24597926 34.64850467 24.03990655 32 27 C31.34 27.33 30.68 27.66 30 28 C30.3609375 28.47050781 30.721875 28.94101562 31.09375 29.42578125 C31.78984375 30.35970703 31.78984375 30.35970703 32.5 31.3125 C32.9640625 31.92738281 33.428125 32.54226563 33.90625 33.17578125 C35 35 35 35 35 38 C35.66 38 36.32 38 37 38 C37 38.99 37 39.98 37 41 C32.54773336 41.54230616 28.43226222 41.77822278 24 41 C20.82601782 38.46593358 18.800965 35.62812585 17 32 C17 31.34 17 30.68 17 30 C15.68 30.33 14.36 30.66 13 31 C13 34.3 13 37.6 13 41 C8.71 41 4.42 41 0 41 C0 27.47 0 13.94 0 0 Z M13 11 C13 13.97 13 16.94 13 20 C18.28513335 20.46312039 18.28513335 20.46312039 23.0625 18.75 C24.19295223 17.02526579 24.19295223 17.02526579 23.8125 14.9375 C23.06529664 12.81287474 23.06529664 12.81287474 21 11 C18.31160615 10.73008094 15.70858064 10.91262643 13 11 Z " fill="#DDDDDD" transform="translate(275,336)"/>
<path d="M0 0 C10.56 0 21.12 0 32 0 C32 3.3 32 6.6 32 10 C25.73 10 19.46 10 13 10 C13 11.65 13 13.3 13 15 C13.99 14.67 14.98 14.34 16 14 C17.99741736 13.8807098 19.99906124 13.82476065 22 13.8125 C23.051875 13.79832031 24.10375 13.78414063 25.1875 13.76953125 C28 14 28 14 31 16 C31.328125 18.12890625 31.328125 18.12890625 31.25 20.5625 C31.23453125 21.36816406 31.2190625 22.17382812 31.203125 23.00390625 C31 25 31 25 30 26 C27.13732433 26.07325168 24.299281 26.09238205 21.4375 26.0625 C20.63119141 26.05798828 19.82488281 26.05347656 18.99414062 26.04882812 C16.99606244 26.03700518 14.99802217 26.01906914 13 26 C13.33 27.32 13.66 28.64 14 30 C20.27 30 26.54 30 33 30 C33.495 35.445 33.495 35.445 34 41 C29.3188055 41.16725324 24.63744899 41.32784864 19.95581055 41.48217773 C18.36199744 41.53566794 16.76824515 41.59100255 15.17456055 41.64819336 C12.88864258 41.72990942 10.60259054 41.80506897 8.31640625 41.87890625 C7.59973282 41.90594131 6.88305939 41.93297638 6.14466858 41.96083069 C4.43052233 42.01297644 2.71489824 42.01185628 1 42 C0 41 0 41 -0.11352539 37.12280273 C-0.11336621 35.39305833 -0.10766849 33.66330919 -0.09765625 31.93359375 C-0.0962413 31.02497086 -0.09482635 30.11634796 -0.09336853 29.18019104 C-0.08775193 26.26592779 -0.07519665 23.35174019 -0.0625 20.4375 C-0.05748714 18.46679798 -0.05292386 16.49609476 -0.04882812 14.52539062 C-0.03862617 9.68354086 -0.01905409 4.84185553 0 0 Z " fill="#FCFCFC" transform="translate(353,336)"/>
<path d="M0 0 C10.56 0 21.12 0 32 0 C32 3.63 32 7.26 32 11 C25.73 10.67 19.46 10.34 13 10 C13 11.65 13 13.3 13 15 C13.66 14.67 14.32 14.34 15 14 C20.04375319 13.69648211 25.09260374 13.691361 30 15 C30.02688151 16.64574566 30.04634123 18.29161413 30.0625 19.9375 C30.07410156 20.85402344 30.08570313 21.77054687 30.09765625 22.71484375 C30 25 30 25 29 26 C26.30345146 26.07319621 23.63308542 26.09242537 20.9375 26.0625 C20.17888672 26.05798828 19.42027344 26.05347656 18.63867188 26.04882812 C16.75908129 26.0370068 14.87953101 26.01907078 13 26 C13 27.32 13 28.64 13 30 C13.85549438 29.99214478 13.85549438 29.99214478 14.72827148 29.98413086 C17.29800323 29.96341779 19.86771747 29.9503581 22.4375 29.9375 C23.78424805 29.92493164 23.78424805 29.92493164 25.15820312 29.91210938 C26.01220703 29.90888672 26.86621094 29.90566406 27.74609375 29.90234375 C28.93223267 29.89448853 28.93223267 29.89448853 30.14233398 29.88647461 C32 30 32 30 33 31 C33.07205511 32.68608966 33.08386068 34.37500659 33.0625 36.0625 C33.05347656 36.98160156 33.04445313 37.90070313 33.03515625 38.84765625 C33.02355469 39.55792969 33.01195312 40.26820313 33 41 C30.02589653 42.48705173 27.05207808 42.00631896 23.8046875 41.87890625 C22.51030762 41.83580322 21.21592773 41.7927002 19.88232422 41.74829102 C18.22990723 41.68697998 16.57749023 41.62566895 14.875 41.5625 C9.63625 41.376875 4.3975 41.19125 -1 41 C-0.67 27.47 -0.34 13.94 0 0 Z " fill="#FAFAFA" transform="translate(316,336)"/>
<path d="M0 0 C2.10241603 -0.13496251 4.2072961 -0.23197307 6.3125 -0.3125 C7.48425781 -0.37050781 8.65601563 -0.42851562 9.86328125 -0.48828125 C13 0 13 0 14.83984375 2.30859375 C15.99211544 4.98170888 17.00322234 7.68586027 17.984375 10.42578125 C19.6003205 14.52158158 21.51152698 18.48091104 23.39941406 22.45654297 C29 34.26863147 29 34.26863147 29 38 C29.66 38 30.32 38 31 38 C31 38.99 31 39.98 31 41 C24.565 41.495 24.565 41.495 18 42 C15 36.25 15 36.25 15 34 C12.39127531 34.00600397 9.79454299 34.05326709 7.1875 34.125 C6.44951172 34.12242187 5.71152344 34.11984375 4.95117188 34.1171875 C2.49926004 34.1439914 2.49926004 34.1439914 -1 35 C-2.66984103 37.95941426 -2.66984103 37.95941426 -4 41 C-6.71484375 41.83984375 -6.71484375 41.83984375 -9.9375 41.9375 C-11.65839844 41.99550781 -11.65839844 41.99550781 -13.4140625 42.0546875 C-18.64338999 41.97493741 -23.80661297 41.60823452 -29 41 C-29 40.67 -29 40.34 -29 40 C-25.04 40 -21.08 40 -17 40 C-17 39.34 -17 38.68 -17 38 C-16.34 38 -15.68 38 -15 38 C-14.88398438 36.79537109 -14.88398438 36.79537109 -14.765625 35.56640625 C-13.77572736 30.95530142 -11.84459007 27.13973186 -9.75 22.9375 C-6.08249508 15.41076808 -2.81916916 7.89084031 0 0 Z M6 17 C4.515 20.465 4.515 20.465 3 24 C5.31 24 7.62 24 10 24 C9.39816251 21.97954558 8.72693904 19.97888961 8 18 C7.34 17.67 6.68 17.34 6 17 Z " fill="#DDDDDD" transform="translate(157,336)"/>
<path d="M0 0 C-0.46800711 4.05606165 -0.87953208 7.46588679 -3 11 C-8 10 -8 10 -10.4375 9.4375 C-13.32944269 8.94375369 -16.07166734 8.93189924 -19 9 C-18.67 9.99 -18.34 10.98 -18 12 C-16.68 12 -15.36 12 -14 12 C-14 12.66 -14 13.32 -14 14 C-11.69 14 -9.38 14 -7 14 C-7 14.66 -7 15.32 -7 16 C-6.236875 16.103125 -5.47375 16.20625 -4.6875 16.3125 C-1.78132022 17.05594134 -0.80086951 17.65886963 1 20 C2.48350698 24.45052094 2.67885885 28.28288644 0.9375 32.6875 C-2.76842101 37.11069605 -7.32777631 39.20273283 -13 40 C-20.52519666 39.96145866 -27.1318492 39.09740134 -34 36 C-33.46884894 31.48521602 -31.63379708 28.65333143 -29 25 C-28.67 25.66 -28.34 26.32 -28 27 C-22.66645094 28.11115605 -17.43087408 28.11083416 -12 28 C-12 27.34 -12 26.68 -12 26 C-12.86882812 25.82984375 -13.73765625 25.6596875 -14.6328125 25.484375 C-28.64093669 22.53859497 -28.64093669 22.53859497 -33 16 C-33.86934212 12.97745289 -34.22010984 10.14059162 -34 7 C-31.0539478 2.32097592 -27.47279578 -0.97816914 -22.1015625 -2.55859375 C-14.37332683 -4.18181054 -7.39188363 -2.32118963 0 0 Z " fill="#D2D2D2" transform="translate(422,338)"/>
<path d="M0 0 C4.62 0 9.24 0 14 0 C17.27923166 6.91297485 20.02753459 13.60726379 22 21 C22.99 21 23.98 21 25 21 C25 20.01 25 19.02 25 18 C25.66 18 26.32 18 27 18 C27.16822266 16.97326172 27.16822266 16.97326172 27.33984375 15.92578125 C28.10771393 12.52261695 29.28413948 9.43256902 30.5625 6.1875 C31.24505859 4.44533203 31.24505859 4.44533203 31.94140625 2.66796875 C32.46541016 1.34732422 32.46541016 1.34732422 33 0 C37.29 0 41.58 0 46 0 C45.54177532 3.46941546 45.10868317 6.67395049 44 10 C43.34 10 42.68 10 42 10 C41.86851563 10.56203125 41.73703125 11.1240625 41.6015625 11.703125 C38.94267545 21.8552392 34.26682338 31.44758923 30 41 C25.71 41 21.42 41 17 41 C13.26745778 33.79532548 9.99424532 26.65478488 7.16015625 19.0546875 C5.33190677 14.24091278 3.33804805 9.47421517 0.88671875 4.94140625 C0 3 0 3 0 0 Z M23 22 C24 24 24 24 24 24 Z " fill="#D9D9D9" transform="translate(38,336)"/>
<path d="M0 0 C12.21 0 24.42 0 37 0 C37 3.63 37 7.26 37 11 C33.04 11 29.08 11 25 11 C25.33 20.9 25.66 30.8 26 41 C21.38 41 16.76 41 12 41 C12.33 31.1 12.66 21.2 13 11 C8.71 11 4.42 11 0 11 C0 7.37 0 3.74 0 0 Z " fill="#F8F8F8" transform="translate(235,336)"/>
<path d="M0 0 C4.29 0 8.58 0 13 0 C13 9.9 13 19.8 13 30 C18.94 30 24.88 30 31 30 C31.33 33.63 31.66 37.26 32 41 C21.44 41 10.88 41 0 41 C0 27.47 0 13.94 0 0 Z " fill="#D5D5D5" transform="translate(189,336)"/>
<path d="M0 0 C3.11842182 2.20123893 3.88950114 2.86902201 5.1875 6.25 C5.76346332 10.43134407 5.58975322 14.16155012 4.125 18.125 C1.46603352 21.04128582 -1.08638788 22.02937707 -4.8125 23.25 C-5.58940186 23.16169922 -6.36630371 23.07339844 -7.16674805 22.98242188 C-11.16197953 23.38647961 -13.12490188 25.94313512 -15.76953125 28.71875 C-16.31735764 29.27365112 -16.86518402 29.82855225 -17.42961121 30.40026855 C-19.17350503 32.17211014 -20.89919954 33.96054789 -22.625 35.75 C-23.80548124 36.95556344 -24.98710944 38.16000493 -26.16992188 39.36328125 C-29.06424216 42.31267591 -31.94236235 45.27707505 -34.8125 48.25 C-35.4725 47.92 -36.1325 47.59 -36.8125 47.25 C-31.2025 41.64 -25.5925 36.03 -19.8125 30.25 C-22.0361068 28.9518576 -22.0361068 28.9518576 -25.8125 29.25 C-27.35138984 31.45102057 -27.35138984 31.45102057 -28.8125 34.25 C-31.79230666 38.2492142 -33.90122787 40.95755997 -38.8125 42.25 C-39.8025 42.25 -40.7925 42.25 -41.8125 42.25 C-33.8925 34.33 -25.9725 26.41 -17.8125 18.25 C-18.1425 17.26 -18.4725 16.27 -18.8125 15.25 C-19.36415147 10.50218 -19.25703763 7.12319891 -17.0625 2.8125 C-12.29544717 -2.6166435 -6.49477807 -3.43682006 0 0 Z M-10.8125 8.25 C-10.4825 9.9 -10.1525 11.55 -9.8125 13.25 C-7.41530568 13.92958603 -7.41530568 13.92958603 -4.8125 14.25 C-4.1525 13.59 -3.4925 12.93 -2.8125 12.25 C-3.13291397 9.64719432 -3.13291397 9.64719432 -3.8125 7.25 C-7.29831856 6.0479936 -7.49242344 6.03661563 -10.8125 8.25 Z " fill="#29754D" transform="translate(357.8125,112.75)"/>
<path d="M0 0 C3.72692572 3.28846387 4.95220532 6.49264256 5.5625 11.375 C5.03638008 15.58395939 3.79508809 17.611559 1.125 20.875 C0.42795959 21.33449539 -0.26908081 21.79399078 -0.98724365 22.26741028 C-3.05098062 23.70203175 -3.05098062 23.70203175 -3.35601807 25.94413757 C-3.34713562 26.7368959 -3.33825317 27.52965424 -3.32910156 28.34643555 C-3.32879944 29.24714279 -3.32849731 30.14785004 -3.32818604 31.07585144 C-3.30754089 32.04468765 -3.28689575 33.01352386 -3.265625 34.01171875 C-3.25996521 35.00629593 -3.25430542 36.00087311 -3.24847412 37.02558899 C-3.2260672 40.20504711 -3.17586205 43.383382 -3.125 46.5625 C-3.10494062 48.71678061 -3.08668887 50.87107887 -3.0703125 53.02539062 C-3.02618852 58.30897758 -2.95923379 63.59190855 -2.875 68.875 C-3.205 68.875 -3.535 68.875 -3.875 68.875 C-5.09531898 64.12462333 -5.00223661 59.50333736 -4.97265625 54.63671875 C-4.9712413 53.75595169 -4.96982635 52.87518463 -4.96836853 51.96772766 C-4.96278937 49.16594997 -4.95024071 46.36425338 -4.9375 43.5625 C-4.93248231 41.65820428 -4.92791987 39.75390731 -4.92382812 37.84960938 C-4.91282677 33.19137519 -4.89557649 28.53320133 -4.875 23.875 C-6.855 23.875 -8.835 23.875 -10.875 23.875 C-10.75669628 29.78333871 -10.63244375 35.69151111 -10.50268555 41.59960938 C-10.45938356 43.60934043 -10.41770512 45.61910715 -10.37768555 47.62890625 C-10.31986835 50.51833848 -10.25620676 53.40759198 -10.19140625 56.296875 C-10.17469376 57.19492859 -10.15798126 58.09298218 -10.14076233 59.01824951 C-10.12081711 59.85881897 -10.10087189 60.69938843 -10.08032227 61.56542969 C-10.06477798 62.30267273 -10.0492337 63.03991577 -10.03321838 63.79949951 C-9.93259505 65.88704128 -9.93259505 65.88704128 -9.36607361 67.90997314 C-8.62138892 70.88982257 -8.81625523 73.82027199 -8.875 76.875 C-12.52128793 70.55476759 -12.01091054 63.51134642 -11.97265625 56.4453125 C-11.9712413 55.45498016 -11.96982635 54.46464783 -11.96836853 53.44430542 C-11.96279252 50.29617227 -11.95024442 47.14811148 -11.9375 44 C-11.9324819 41.85937603 -11.92791954 39.71875094 -11.92382812 37.578125 C-11.91283094 32.34372551 -11.89611675 27.10936793 -11.875 21.875 C-12.66261719 21.59011719 -13.45023438 21.30523437 -14.26171875 21.01171875 C-17.66124273 19.53300204 -18.44211608 18.26867245 -19.875 14.875 C-20.44296579 9.66864695 -19.76368756 6.2578363 -16.875 1.875 C-12.06628639 -2.3679826 -5.75297081 -2.25116249 0 0 Z M-8.875 6.875 C-11.16228734 8.71383881 -11.16228734 8.71383881 -11 11.5 C-10.95875 12.28375 -10.9175 13.0675 -10.875 13.875 C-8.895 14.865 -8.895 14.865 -6.875 15.875 C-5.885 15.215 -4.895 14.555 -3.875 13.875 C-3.45833333 11.375 -3.45833333 11.375 -3.875 8.875 C-4.535 8.215 -5.195 7.555 -5.875 6.875 C-6.865 6.875 -7.855 6.875 -8.875 6.875 Z " fill="#2A744C" transform="translate(165.875,42.125)"/>
<path d="M0 0 C4.29 0 8.58 0 13 0 C13 13.53 13 27.06 13 41 C8.71 41 4.42 41 0 41 C0 27.47 0 13.94 0 0 Z " fill="#D7D7D7" transform="translate(85,336)"/>
<path d="M0 0 C3.12578143 1.6720747 5.39281175 3.7856235 7 7 C7.43281664 11.23660902 7.44858706 14.91394711 5.8125 18.875 C3.66566389 21.39198026 2.04756594 22.68400562 -1 24 C-3.33285683 24.04715349 -5.66724665 24.05202149 -8 24 C-7.89204627 31.42417886 -7.77932547 38.84826961 -7.66066074 46.27228546 C-7.60569591 49.72023064 -7.55232105 53.1681846 -7.50268555 56.61621094 C-7.44543888 60.58797185 -7.38108641 64.55960292 -7.31640625 68.53125 C-7.29969376 69.75863892 -7.28298126 70.98602783 -7.26576233 72.25061035 C-7.16271877 78.24664757 -6.90183565 84.06906662 -6 90 C-8.9477771 87.0522229 -8.94913686 84.22814422 -9.11784363 80.15454102 C-9.11529068 79.11483154 -9.11273773 78.07512207 -9.11010742 77.00390625 C-9.11068649 75.81917725 -9.11126556 74.63444824 -9.11186218 73.41381836 C-9.10869743 71.50741577 -9.10869743 71.50741577 -9.10546875 69.5625 C-9.11891854 66.86716668 -9.13382513 64.17187503 -9.15039062 61.4765625 C-9.17472738 57.22999903 -9.19039367 52.98392831 -9.17504883 48.73730469 C-9.16564298 45.96312428 -9.17195417 43.18986314 -9.19612122 40.41577148 C-9.21865337 37.80600531 -9.2185203 35.19592423 -9.19340515 32.58618164 C-9.05696953 26.51849711 -9.05696953 26.51849711 -11.35171509 21.12939453 C-13.13307965 19.59387404 -13.13307965 19.59387404 -16 18 C-17.74221711 14.51556578 -17.58675154 10.80112955 -17 7 C-13.05743886 -0.12014773 -7.58623364 -1.06881086 0 0 Z M-7 8 C-7.66 9.65 -8.32 11.3 -9 13 C-6.525 14.485 -6.525 14.485 -4 16 C-3.01 15.34 -2.02 14.68 -1 14 C-1.33 12.35 -1.66 10.7 -2 9 C-3.65 8.67 -5.3 8.34 -7 8 Z " fill="#216C43" transform="translate(217,58)"/>
<path d="M0 0 C0.66 0 1.32 0 2 0 C1.67 1.32 1.34 2.64 1 4 C1.66 4 2.32 4 3 4 C3.33 3.34 3.66 2.68 4 2 C3.83701416 3.19616943 3.67402832 4.39233887 3.50610352 5.62475586 C2.79320848 12.07853468 2.87590243 18.51830155 2.90234375 25.00390625 C2.90446617 26.9824485 2.90446617 26.9824485 2.90663147 29.0009613 C2.91041757 32.47789466 2.92021364 35.95478507 2.93133545 39.43170166 C2.9416344 42.99157124 2.94614712 46.55144788 2.95117188 50.11132812 C2.96184012 57.07423619 2.97886855 64.03711603 3 71 C0.625 71.625 0.625 71.625 -2 72 C-4.67962754 69.32037246 -4.25318957 67.99745128 -4.25878906 64.25268555 C-4.26509338 63.0477092 -4.27139771 61.84273285 -4.27789307 60.60124207 C-4.2738446 59.29294937 -4.26979614 57.98465668 -4.265625 56.63671875 C-4.26697219 55.28391958 -4.26891318 53.93112088 -4.27142334 52.57832336 C-4.27437509 49.73942467 -4.27007746 46.90065168 -4.26074219 44.06176758 C-4.24938012 40.43016572 -4.25588594 36.79886053 -4.26788712 33.16726971 C-4.27513233 30.37136116 -4.27280504 27.57552229 -4.26763153 24.77961159 C-4.26565472 22.79160494 -4.27171259 20.80359555 -4.27789307 18.81559753 C-4.27158875 17.6011647 -4.26528442 16.38673187 -4.25878906 15.13549805 C-4.25719788 14.06897507 -4.25560669 13.00245209 -4.25396729 11.90361023 C-3.86547244 7.46194524 -2.02894717 3.91296954 0 0 Z " fill="#3A9B6B" transform="translate(246,196)"/>
<path d="M0 0 C0 1.98 0 3.96 0 6 C-30.69 6 -61.38 6 -93 6 C-93.33 5.34 -93.66 4.68 -94 4 C-93.67 3.01 -93.34 2.02 -93 1 C-81.02196095 0.8695526 -69.04392127 0.73916312 -57.06588078 0.60884857 C-51.50461356 0.54834318 -45.94334657 0.48781747 -40.38208008 0.42724609 C-35.01992786 0.36884414 -29.65777507 0.31049455 -24.29562187 0.25218201 C-22.24499936 0.22987247 -20.19437706 0.20754374 -18.14375496 0.18519592 C-15.28211648 0.1540128 -12.42047728 0.12289659 -9.55883789 0.09179688 C-8.27382889 0.07777077 -8.27382889 0.07777077 -6.96286011 0.0634613 C-1.11405216 0 -1.11405216 0 0 0 Z " fill="#CDCDCD" transform="translate(400,310)"/>
<path d="M0 0 C30.69 0 61.38 0 93 0 C93 1.65 93 3.3 93 5 C62.31 5 31.62 5 0 5 C0 3.35 0 1.7 0 0 Z " fill="#CFCFCF" transform="translate(63,311)"/>
<path d="M0 0 C2.9576473 2.29217666 3.81597278 3.44791835 5 7 C5.48384204 11.91906075 5.51355236 14.05848735 3.125 18.4375 C0.05110654 21.66069686 -3.32661991 21.93544825 -7.6328125 22.1015625 C-11.99685783 21.91432623 -14.08574696 20.81541488 -17.3125 17.9375 C-19.64504398 13.87714567 -19.66592642 10.57824412 -19 6 C-17.59445792 2.19676848 -16.33609795 1.20838073 -12.875 -0.9375 C-8.37837218 -2.61776857 -4.36777236 -1.7403503 0 0 Z M-11 8 C-10.67 9.98 -10.34 11.96 -10 14 C-8.15274948 14.69159401 -8.15274948 14.69159401 -6 15 C-5.01 14.34 -4.02 13.68 -3 13 C-2.66656449 10.45792029 -2.66656449 10.45792029 -3 8 C-4.05224667 6.72443182 -4.05224667 6.72443182 -6.4375 6.875 C-8.98978622 6.82693324 -8.98978622 6.82693324 -11 8 Z " fill="#30875B" transform="translate(293,79)"/>
<path d="M0 0 C3.12325867 1.756833 4.49010195 3.18879855 6.375 6.1875 C7.60021517 11.70096828 7.09297093 16.27240079 4.0625 21.0625 C-0.28994618 23.8160884 -3.98025101 23.77353509 -9 23 C-12.125 21.625 -12.125 21.625 -14 20 C-14 19.34 -14 18.68 -14 18 C-14.66 18 -15.32 18 -16 18 C-17.74221711 14.51556578 -17.58675154 10.80112955 -17 7 C-13.00270794 -0.21899014 -7.63389045 -0.86557498 0 0 Z M-9 9 C-8.67 11.31 -8.34 13.62 -8 16 C-6.02 16 -4.04 16 -2 16 C-1.23283149 13.14921909 -1.23283149 13.14921909 -1 10 C-2.18895236 8.05967596 -2.18895236 8.05967596 -4 7 C-6.32357511 6.81509993 -6.32357511 6.81509993 -9 9 Z " fill="#38976A" transform="translate(285,32)"/>
<path d="M0 0 C0.99 0 1.98 0 3 0 C3.33 1.32 3.66 2.64 4 4 C4.66 4 5.32 4 6 4 C6 23.8 6 43.6 6 64 C4.02 64.495 4.02 64.495 2 65 C0.42386429 60.81279639 -0.24622153 57.36961688 -0.22705078 52.90283203 C-0.22689972 51.72206085 -0.22674866 50.54128967 -0.22659302 49.32473755 C-0.21627045 48.06515228 -0.20594788 46.80556702 -0.1953125 45.5078125 C-0.1924826 44.20673553 -0.18965271 42.90565857 -0.18673706 41.56515503 C-0.17913675 38.1226418 -0.15951973 34.68029997 -0.1373291 31.237854 C-0.11679261 27.71848875 -0.10771873 24.19909553 -0.09765625 20.6796875 C-0.07627002 13.78638837 -0.0421781 6.89320243 0 0 Z " fill="#42AC79" transform="translate(214,202)"/>
<path d="M0 0 C1.98 0 3.96 0 6 0 C6.07498534 5.45854803 6.12899073 10.91678652 6.16479492 16.37573242 C6.17974413 18.22702263 6.20011097 20.07827829 6.22631836 21.92944336 C6.54027919 44.70083737 6.54027919 44.70083737 3 53 C1.515 53.495 1.515 53.495 0 54 C0 54.99 0 55.98 0 57 C-2.475 57.495 -2.475 57.495 -5 58 C-4.74357696 56.08135229 -4.46926564 54.16509006 -4.1875 52.25 C-4.03667969 51.18265625 -3.88585937 50.1153125 -3.73046875 49.015625 C-3 46 -3 46 -1.47265625 44.41015625 C0.85479187 40.60104354 0.36838205 36.79579747 0.29296875 32.421875 C0.28872391 31.4953009 0.28447906 30.56872681 0.28010559 29.61407471 C0.26333322 26.65908566 0.22568355 23.70478239 0.1875 20.75 C0.1724513 18.74480153 0.15876322 16.73959235 0.14648438 14.734375 C0.11343438 9.82265304 0.06166182 4.91144274 0 0 Z " fill="#42A775" transform="translate(302,66)"/>
<path d="M0 0 C1.98 0 3.96 0 6 0 C6.01458252 0.83772949 6.02916504 1.67545898 6.04418945 2.53857422 C6.10520707 5.64378902 6.17935065 8.74833117 6.26245117 11.85302734 C6.31209959 13.85882336 6.34654164 15.86497687 6.38085938 17.87109375 C6.41630859 19.12792969 6.45175781 20.38476562 6.48828125 21.6796875 C6.51446533 22.84226074 6.54064941 24.00483398 6.56762695 25.20263672 C6.71031006 26.1257666 6.85299316 27.04889648 7 28 C7.99 28.66 8.98 29.32 10 30 C10.42339372 33.89522224 10.19303181 36.71045229 8 40 C7.01 40.495 7.01 40.495 6 41 C5.09274566 43.11327425 5.09274566 43.11327425 4.375 45.5625 C4.11460937 46.38878906 3.85421875 47.21507812 3.5859375 48.06640625 C3.39257812 48.70449219 3.19921875 49.34257812 3 50 C0.525 50.495 0.525 50.495 -2 51 C-2.042721 49.33388095 -2.04063832 47.66617115 -2 46 C-1.505 45.505 -1.505 45.505 -1 45 C-0.87790076 43.58882298 -0.82229128 42.17179541 -0.79467773 40.75561523 C-0.7647599 39.40432777 -0.7647599 39.40432777 -0.73423767 38.02574158 C-0.71752518 37.04658279 -0.70081268 36.06742401 -0.68359375 35.05859375 C-0.66281265 34.06118668 -0.64203156 33.0637796 -0.62062073 32.03614807 C-0.55501363 28.83667157 -0.49618866 25.63711018 -0.4375 22.4375 C-0.39432538 20.27407961 -0.35071145 18.11066794 -0.30664062 15.94726562 C-0.19932097 10.63160126 -0.09757573 5.31585166 0 0 Z " fill="#44AC76" transform="translate(283,102)"/>
<path d="M0 0 C2.31 0 4.62 0 7 0 C7 2.64 7 5.28 7 8 C9.31 8 11.62 8 14 8 C14 5.36 14 2.72 14 0 C16.31 0 18.62 0 21 0 C21 6.93 21 13.86 21 21 C18.69 21 16.38 21 14 21 C14 18.69 14 16.38 14 14 C11.69 14 9.38 14 7 14 C7 16.31 7 18.62 7 21 C4.69 21 2.38 21 0 21 C0 14.07 0 7.14 0 0 Z " fill="#C5C5C5" transform="translate(221,303)"/>
<path d="M0 0 C5.61 0 11.22 0 17 0 C17 1.98 17 3.96 17 6 C13.7 6 10.4 6 7 6 C7.33 6.33 7.66 6.66 8 7 C9.155 7 10.31 7 11.5 7 C12.655 7 13.81 7 15 7 C16 8 16 8 16.0625 10.5625 C16.041875 11.366875 16.02125 12.17125 16 13 C13.03 13 10.06 13 7 13 C7 13.66 7 14.32 7 15 C10.3 14.67 13.6 14.34 17 14 C17 16.31 17 18.62 17 21 C11.39 21 5.78 21 0 21 C0 14.07 0 7.14 0 0 Z " fill="#C0C0C0" transform="translate(262,303)"/>
<path d="M0 0 C10.56 0 21.12 0 32 0 C32 0.66 32 1.32 32 2 C22.1 2 12.2 2 2 2 C2 14.54 2 27.08 2 40 C11.9 40 21.8 40 32 40 C32 37.36 32 34.72 32 32 C25.4 32 18.8 32 12 32 C12 29.36 12 26.72 12 24 C17.61 24 23.22 24 29 24 C29 21.36 29 18.72 29 16 C23.39 16 17.78 16 12 16 C12 14.02 12 12.04 12 10 C12.33 10 12.66 10 13 10 C13 11.65 13 13.3 13 15 C13.99 14.67 14.98 14.34 16 14 C17.99741736 13.8807098 19.99906124 13.82476065 22 13.8125 C23.051875 13.79832031 24.10375 13.78414063 25.1875 13.76953125 C28 14 28 14 31 16 C31.328125 18.12890625 31.328125 18.12890625 31.25 20.5625 C31.23453125 21.36816406 31.2190625 22.17382812 31.203125 23.00390625 C31 25 31 25 30 26 C27.13732433 26.07325168 24.299281 26.09238205 21.4375 26.0625 C20.63119141 26.05798828 19.82488281 26.05347656 18.99414062 26.04882812 C16.99606244 26.03700518 14.99802217 26.01906914 13 26 C13.33 27.32 13.66 28.64 14 30 C20.27 30 26.54 30 33 30 C33.495 35.445 33.495 35.445 34 41 C29.3188055 41.16725324 24.63744899 41.32784864 19.95581055 41.48217773 C18.36199744 41.53566794 16.76824515 41.59100255 15.17456055 41.64819336 C12.88864258 41.72990942 10.60259054 41.80506897 8.31640625 41.87890625 C7.59973282 41.90594131 6.88305939 41.93297638 6.14466858 41.96083069 C4.43052233 42.01297644 2.71489824 42.01185628 1 42 C0 41 0 41 -0.11352539 37.12280273 C-0.11336621 35.39305833 -0.10766849 33.66330919 -0.09765625 31.93359375 C-0.0962413 31.02497086 -0.09482635 30.11634796 -0.09336853 29.18019104 C-0.08775193 26.26592779 -0.07519665 23.35174019 -0.0625 20.4375 C-0.05748714 18.46679798 -0.05292386 16.49609476 -0.04882812 14.52539062 C-0.03862617 9.68354086 -0.01905409 4.84185553 0 0 Z " fill="#525252" transform="translate(353,336)"/>
<path d="M0 0 C2.71043054 1.24017629 4.88068625 2.88068625 7 5 C7.04080783 6.99958364 7.04254356 9.00045254 7 11 C5.68 11.33 4.36 11.66 3 12 C2.34 11.01 1.68 10.02 1 9 C-2.56769552 8.26393501 -2.56769552 8.26393501 -6 8 C-6 9.65 -6 11.3 -6 13 C-3.1575146 14.57273568 -3.1575146 14.57273568 0 15 C-0.33 16.32 -0.66 17.64 -1 19 C-0.34 19.33 0.32 19.66 1 20 C1 20.66 1 21.32 1 22 C-8.14973262 22.31016043 -8.14973262 22.31016043 -12 20 C-14.99431705 16.48942139 -15.46979208 13.39237149 -15.29296875 8.9296875 C-14.86045852 6.08088679 -13.77720667 4.23796396 -12 2 C-7.96939143 -0.68707238 -4.73717522 -0.68596234 0 0 Z " fill="#359063" transform="translate(239,29)"/>
<path d="M0 0 C3.76115969 2.06495042 7.09650288 4.08725592 9 8 C9.34184583 11.03320351 9.44948488 13.97619263 9 17 C8.34 17.66 7.68 18.32 7 19 C6.67 15.04 6.34 11.08 6 7 C4.35 7.33 2.7 7.66 1 8 C1.33 8.66 1.66 9.32 2 10 C2.13415472 12.6723621 2.04318541 15.32250488 2 18 C-1.32604951 19.10868317 -4.53058454 19.54177532 -8 20 C-8 20.99 -8 21.98 -8 23 C-11.47366207 22.06117241 -12.78532695 21.30769804 -14.875 18.3125 C-16.25483833 14.24964271 -16.17759905 12.12159668 -15 8 C-11.2723738 1.9443396 -7.14536467 -0.85744376 0 0 Z M-5 9 C-5.66 9.66 -6.32 10.32 -7 11 C-6.67958603 13.60280568 -6.67958603 13.60280568 -6 16 C-4.35 16.33 -2.7 16.66 -1 17 C1.30671915 14.28450846 1.30671915 14.28450846 0.625 11.8125 C0.41875 11.214375 0.2125 10.61625 0 10 C-2.39719432 9.32041397 -2.39719432 9.32041397 -5 9 Z " fill="#29784D" transform="translate(180,76)"/>
<path d="M0 0 C1.98 0 3.96 0 6 0 C6.33 15.18 6.66 30.36 7 46 C6.01 46 5.02 46 4 46 C3.67 47.32 3.34 48.64 3 50 C0.26604294 43.76897444 -0.41231864 38.79433299 -0.29296875 32.03125 C-0.28872391 31.11033569 -0.28447906 30.18942139 -0.28010559 29.24060059 C-0.26344065 26.32675755 -0.22581188 23.41363061 -0.1875 20.5 C-0.17243739 18.51303089 -0.15875175 16.52605083 -0.14648438 14.5390625 C-0.11357716 9.69243643 -0.06188031 4.84633922 0 0 Z " fill="#44AB76" transform="translate(155,66)"/>
<path d="M0 0 C10.56 0 21.12 0 32 0 C32 3.63 32 7.26 32 11 C31.67 11 31.34 11 31 11 C31 7.7 31 4.4 31 1 C21.1 1 11.2 1 1 1 C1 13.87 1 26.74 1 40 C11.23 40 21.46 40 32 40 C32 37.36 32 34.72 32 32 C25.07 32 18.14 32 11 32 C11 29.36 11 26.72 11 24 C16.94 24 22.88 24 29 24 C29 21.36 29 18.72 29 16 C23.39 16 17.78 16 12 16 C12 14.02 12 12.04 12 10 C12.33 10 12.66 10 13 10 C13 11.65 13 13.3 13 15 C13.66 14.67 14.32 14.34 15 14 C20.04375319 13.69648211 25.09260374 13.691361 30 15 C30.02688151 16.64574566 30.04634123 18.29161413 30.0625 19.9375 C30.07410156 20.85402344 30.08570313 21.77054687 30.09765625 22.71484375 C30 25 30 25 29 26 C26.30345146 26.07319621 23.63308542 26.09242537 20.9375 26.0625 C20.17888672 26.05798828 19.42027344 26.05347656 18.63867188 26.04882812 C16.75908129 26.0370068 14.87953101 26.01907078 13 26 C13 27.32 13 28.64 13 30 C13.85549438 29.99214478 13.85549438 29.99214478 14.72827148 29.98413086 C17.29800323 29.96341779 19.86771747 29.9503581 22.4375 29.9375 C23.78424805 29.92493164 23.78424805 29.92493164 25.15820312 29.91210938 C26.01220703 29.90888672 26.86621094 29.90566406 27.74609375 29.90234375 C28.93223267 29.89448853 28.93223267 29.89448853 30.14233398 29.88647461 C32 30 32 30 33 31 C33.07205511 32.68608966 33.08386068 34.37500659 33.0625 36.0625 C33.05347656 36.98160156 33.04445313 37.90070313 33.03515625 38.84765625 C33.02355469 39.55792969 33.01195312 40.26820313 33 41 C30.02589653 42.48705173 27.05207808 42.00631896 23.8046875 41.87890625 C22.51030762 41.83580322 21.21592773 41.7927002 19.88232422 41.74829102 C18.22990723 41.68697998 16.57749023 41.62566895 14.875 41.5625 C9.63625 41.376875 4.3975 41.19125 -1 41 C-0.67 27.47 -0.34 13.94 0 0 Z " fill="#575757" transform="translate(316,336)"/>
<path d="M0 0 C0.98484375 0.00902344 1.9696875 0.01804688 2.984375 0.02734375 C4.10585937 0.04474609 4.10585937 0.04474609 5.25 0.0625 C5.91 1.7125 6.57 3.3625 7.25 5.0625 C3.61576791 7.38840854 0.47911669 7.22515833 -3.75 7.0625 C-4.41 9.3725 -5.07 11.6825 -5.75 14.0625 C-1.295 15.0525 -1.295 15.0525 3.25 16.0625 C3.58 15.4025 3.91 14.7425 4.25 14.0625 C4.29254356 16.06204746 4.29080783 18.06291636 4.25 20.0625 C3.25 21.0625 3.25 21.0625 0.66796875 21.15234375 C-8.03838815 20.74176585 -8.03838815 20.74176585 -11.5 17.4375 C-13.40644586 12.29009618 -13.40644586 8.83490382 -11.5 3.6875 C-9.75 1.0625 -9.75 1.0625 -8 0.40234375 C-5.30341517 -0.00495292 -2.72655917 -0.03245904 0 0 Z " fill="#3B9A6C" transform="translate(158.75,42.9375)"/>
<path d="M0 0 C2.45054488 2.20618855 3.75864629 4.23054931 5.0625 7.25 C5.38347656 7.97703125 5.70445312 8.7040625 6.03515625 9.453125 C9.09444452 17.52865516 9.26400452 24.63668555 9.1953125 33.24609375 C9.19157695 34.62614231 9.18873254 36.00619355 9.18673706 37.38624573 C9.17914324 40.99807202 9.15953194 44.60973449 9.1373291 48.22149658 C9.11677846 51.91521998 9.10771573 55.60897014 9.09765625 59.30273438 C9.07628148 66.5352305 9.0421977 73.76759219 9 81 C6.125 81.625 6.125 81.625 3 82 C0.40576577 79.40576577 0.74931857 78.35650086 0.74462891 74.74682617 C0.73766998 73.64775436 0.73071106 72.54868256 0.72354126 71.41630554 C0.72453827 70.2206044 0.72553528 69.02490326 0.7265625 67.79296875 C0.70625102 65.26106347 0.68539986 62.72916247 0.6640625 60.19726562 C0.64157816 56.20605087 0.62504088 52.21515177 0.61914062 48.22387695 C0.60953693 44.37159419 0.57563755 40.5200774 0.5390625 36.66796875 C0.54410797 35.49453415 0.54915344 34.32109955 0.55435181 33.11210632 C0.46770851 25.70581471 -0.75112363 19.54285841 -3.24160767 12.55854797 C-4 10 -4 10 -3 8 C-2.01 9.485 -2.01 9.485 -1 11 C-0.34 10.34 0.32 9.68 1 9 C0.64767793 6.57061311 0.64767793 6.57061311 0 4 C0 2.68 0 1.36 0 0 Z M2 16 C1.95356452 23.58898871 1.91807395 31.1779626 1.89637566 38.76706123 C1.88595911 42.29137329 1.87183908 45.81558781 1.84912109 49.33984375 C1.8231404 53.39584261 1.81350962 57.45173975 1.8046875 61.5078125 C1.79436493 62.76739777 1.78404236 64.02698303 1.77340698 65.32473755 C1.77325592 66.50550873 1.77310486 67.68627991 1.77294922 68.90283203 C1.768508 69.93763702 1.76406677 70.97244202 1.75949097 72.03860474 C2.02311618 75.28463023 2.8561681 77.96126608 4 81 C5.98 80.505 5.98 80.505 8 80 C8 60.2 8 40.4 8 20 C7.34 20 6.68 20 6 20 C5.67 18.68 5.34 17.36 5 16 C4.01 16 3.02 16 2 16 Z " fill="#226A46" transform="translate(212,186)"/>
<path d="M0 0 C6.27 0 12.54 0 19 0 C19 1.98 19 3.96 19 6 C17.02 6 15.04 6 13 6 C13 10.95 13 15.9 13 21 C10.36 21 7.72 21 5 21 C5 16.05 5 11.1 5 6 C3.35 6 1.7 6 0 6 C0 4.02 0 2.04 0 0 Z " fill="#B9B9B9" transform="translate(184,303)"/>
<path d="M0 0 C0 1.32 0 2.64 0 4 C-1.134375 4.28875 -2.26875 4.5775 -3.4375 4.875 C-4.613125 5.24625 -5.78875 5.6175 -7 6 C-7.33 6.66 -7.66 7.32 -8 8 C-8.66 8 -9.32 8 -10 8 C-9.53146378 10.99405579 -9.53146378 10.99405579 -8 14 C-4.1100972 15.65681045 -1.03051122 16.61220449 3 15 C3 17 3 17 1.8125 18.625 C-0.59601784 20.45215147 -2.02174904 20.14182147 -5 20 C-5.804375 20.2475 -6.60875 20.495 -7.4375 20.75 C-11.27926919 21.12480675 -13.06937407 19.33117972 -16 17 C-17.73873643 13.52252713 -17.59073264 9.7938163 -17 6 C-14.75 3.0625 -14.75 3.0625 -12 1 C-11.401875 0.54625 -10.80375 0.0925 -10.1875 -0.375 C-6.67305315 -1.37912767 -3.58232364 -0.59705394 0 0 Z " fill="#3C9C6D" transform="translate(356,113)"/>
<path d="M0 0 C3.18707269 1.22483578 3.80293364 2.10912321 6 5 C6.476819 8.39474394 6.3567213 11.59793576 6 15 C5.34 15 4.68 15 4 15 C3.67 16.65 3.34 18.3 3 20 C2.01 20 1.02 20 0 20 C-0.69531169 16.26269966 -1 12.79200032 -1 9 C-2.00836062 7.76732652 -2.00836062 7.76732652 -4.06640625 7.90234375 C-5.30197266 7.91974609 -5.30197266 7.91974609 -6.5625 7.9375 C-7.80193359 7.95103516 -7.80193359 7.95103516 -9.06640625 7.96484375 C-10.02353516 7.98224609 -10.02353516 7.98224609 -11 8 C-11.28875 8.804375 -11.5775 9.60875 -11.875 10.4375 C-13 13 -13 13 -15 14 C-15.4390692 5.36497244 -15.4390692 5.36497244 -12 1 C-8.25513702 -0.87243149 -4.07816956 -0.5238016 0 0 Z " fill="#43AD78" transform="translate(217,58)"/>
<path d="M0 0 C4.67230248 -0.32222776 7.13884627 -0.43057686 11.375 1.6875 C15.24853043 5.09989585 15.85973921 7.42907911 16.3125 12.5 C15.97365747 16.29503628 15.31906811 18.018341 13 21 C12.31647461 21.38647705 11.63294922 21.7729541 10.92871094 22.17114258 C8.51584817 24.45908625 8.49119451 26.1274773 8.39434814 29.3712616 C8.39250519 30.43078789 8.39250519 30.43078789 8.390625 31.51171875 C8.37408875 32.23994339 8.35755249 32.96816803 8.34051514 33.71846008 C8.29197803 36.04155865 8.27065331 38.3640025 8.25 40.6875 C8.22184482 42.26370492 8.19191801 43.83987926 8.16015625 45.41601562 C8.08621856 49.27728983 8.03667968 53.13819939 8 57 C7.67 57 7.34 57 7 57 C7 46.44 7 35.88 7 25 C5.02 25 3.04 25 1 25 C1.01047363 25.9787207 1.02094727 26.95744141 1.03173828 27.96582031 C1.06799093 31.60364105 1.09091958 35.24144587 1.10986328 38.87939453 C1.11990887 40.45266405 1.13354781 42.02591496 1.15087891 43.59912109 C1.17519096 45.86300252 1.18649747 48.12663666 1.1953125 50.390625 C1.20563507 51.09181458 1.21595764 51.79300415 1.22659302 52.51544189 C1.22743257 56.18563476 1.02112595 58.88089213 -1 62 C-2.18542555 58.44372336 -1.64469315 56.66079826 -1 53 C-0.91071027 50.71485691 -0.86939067 48.42751082 -0.8671875 46.140625 C-0.86589844 44.86058594 -0.86460937 43.58054688 -0.86328125 42.26171875 C-0.86537598 41.60349121 -0.8674707 40.94526367 -0.86962891 40.26708984 C-0.87502187 38.24178711 -0.86964549 36.21670251 -0.86328125 34.19140625 C-0.86457031 32.91652344 -0.86585938 31.64164063 -0.8671875 30.328125 C-0.86831543 29.1618457 -0.86944336 27.99556641 -0.87060547 26.79394531 C-0.80876956 24.04466423 -0.80876956 24.04466423 -2 22 C1.3 22.33 4.6 22.66 8 23 C8 22.34 8 21.68 8 21 C7.01 20.67 6.02 20.34 5 20 C5.30921884 18.54096742 5.62248799 17.08279278 5.9375 15.625 C6.11152344 14.81289063 6.28554687 14.00078125 6.46484375 13.1640625 C7 11 7 11 8 9 C8.639375 9.495 9.27875 9.99 9.9375 10.5 C11.70974339 12.09802862 11.70974339 12.09802862 13 12 C13.50169415 9.16926564 13.50169415 9.16926564 13 6 C8.9513007 2.34629575 5.36397692 1.42911815 0 1 C0 0.67 0 0.34 0 0 Z " fill="#206B43" transform="translate(232,28)"/>
<path d="M0 0 C5 5 5 5 5.11938477 6.98730469 C3.51521925 9.87165377 1.44313464 11.89017624 -0.91015625 14.203125 C-1.39705429 14.6857782 -1.88395233 15.1684314 -2.38560486 15.66571045 C-3.9376545 17.2010085 -5.49982136 18.72552925 -7.0625 20.25 C-8.11852357 21.2909722 -9.17387038 22.3326314 -10.22851562 23.375 C-12.81121415 25.92467633 -15.40308882 28.46479196 -18 31 C-18.66 30.67 -19.32 30.34 -20 30 C-14.39 24.39 -8.78 18.78 -3 13 C-5.2236068 11.7018576 -5.2236068 11.7018576 -9 12 C-10.53888984 14.20102057 -10.53888984 14.20102057 -12 17 C-14.97980666 20.9992142 -17.08872787 23.70755997 -22 25 C-22.99 25 -23.98 25 -25 25 C-16.75 16.75 -8.5 8.5 0 0 Z " fill="#2A7951" transform="translate(341,130)"/>
<path d="M0 0 C0.66 0.66 1.32 1.32 2 2 C1.01 2.33 0.02 2.66 -1 3 C-1 2.34 -1 1.68 -1 1 C-2.98 1.66 -4.96 2.32 -7 3 C-6.67 3.99 -6.34 4.98 -6 6 C-4.67511887 6.36548445 -3.33981486 6.6937566 -2 7 C0.25 8.25 0.25 8.25 2 10 C2.561068 13.7404533 2.14762184 14.77856724 0 18 C-3.63 17.67 -7.26 17.34 -11 17 C-11.66 18.32 -12.32 19.64 -13 21 C-15.70637442 18.40639118 -16.2846214 16.25128046 -16.4375 12.625 C-16.28088877 8.09818957 -15.02987385 5.45068966 -12 2 C-8.41970554 -0.8130885 -4.35146293 -0.28073954 0 0 Z M-6 8 C-6.66 8.66 -7.32 9.32 -8 10 C-7.67958603 12.60280568 -7.67958603 12.60280568 -7 15 C-4.60280568 15.67958603 -4.60280568 15.67958603 -2 16 C-1.34 15.34 -0.68 14.68 0 14 C-0.32041397 11.39719432 -0.32041397 11.39719432 -1 9 C-3.39719432 8.32041397 -3.39719432 8.32041397 -6 8 Z " fill="#27724A" transform="translate(116,111)"/>
<path d="M0 0 C4.16064307 0.48379571 6.7711496 2.3961496 9.6875 5.3125 C9.8828125 7.9140625 9.8828125 7.9140625 9.8125 10.9375 C9.79445313 11.94039062 9.77640625 12.94328125 9.7578125 13.9765625 C9.73460938 14.74742188 9.71140625 15.51828125 9.6875 16.3125 C9.0275 16.3125 8.3675 16.3125 7.6875 16.3125 C7.6875 17.6325 7.6875 18.9525 7.6875 20.3125 C4.21898 22.62484667 3.21432952 22.49845596 -0.8125 22.125 C-1.7715625 22.04894531 -2.730625 21.97289062 -3.71875 21.89453125 C-6.54866555 21.25950502 -7.53164707 20.54458256 -9.3125 18.3125 C-8.6525 16.9925 -7.9925 15.6725 -7.3125 14.3125 C-7.3125 14.9725 -7.3125 15.6325 -7.3125 16.3125 C-3.6825 16.3125 -0.0525 16.3125 3.6875 16.3125 C3.6875 15.6525 3.6875 14.9925 3.6875 14.3125 C4.3475 14.3125 5.0075 14.3125 5.6875 14.3125 C5.12718727 11.37611777 5.12718727 11.37611777 3.6875 8.3125 C0.6869093 6.39410141 0.6869093 6.39410141 -2.3125 5.3125 C-2.3125 4.6525 -2.3125 3.9925 -2.3125 3.3125 C-2.9725 2.9825 -3.6325 2.6525 -4.3125 2.3125 C-2.3125 0.3125 -2.3125 0.3125 0 0 Z " fill="#45AD7B" transform="translate(112.3125,111.6875)"/>
<path d="M0 0 C1.2375 0.9590625 1.2375 0.9590625 2.5 1.9375 C6.23191406 4.46413081 9.55723303 4.69360228 14 5 C14 5.33 14 5.66 14 6 C12.02 6 10.04 6 8 6 C7.7417041 6.58426758 7.4834082 7.16853516 7.21728516 7.77050781 C5.90326864 10.17716622 4.47519985 11.75319337 2.5234375 13.671875 C1.853125 14.33574219 1.1828125 14.99960938 0.4921875 15.68359375 C-0.20648438 16.36550781 -0.90515625 17.04742187 -1.625 17.75 C-2.33140625 18.44738281 -3.0378125 19.14476563 -3.765625 19.86328125 C-5.50598703 21.58012488 -7.25084981 23.29211832 -9 25 C-9 22 -9 22 -7.72265625 20.5703125 C-7.17480469 20.09335938 -6.62695312 19.61640625 -6.0625 19.125 C-3.34252266 16.56502133 -2.22654412 14.85125009 -2 11 C-3.65 11.66 -5.3 12.32 -7 13 C-7 13.99 -7 14.98 -7 16 C-9.72648441 19.02942713 -12.58457045 21.76230478 -16 24 C-16.66 24 -17.32 24 -18 24 C-16.54988269 18.42510458 -12.47812816 15.25302353 -8.4375 11.4375 C-7.05431527 10.130946 -5.67769937 8.81739355 -4.30859375 7.49609375 C-3.69814209 6.92044678 -3.08769043 6.3447998 -2.45874023 5.75170898 C-0.85729248 3.82863156 -0.4024387 2.44512508 0 0 Z " fill="#257048" transform="translate(270,50)"/>
<path d="M0 0 C4.98953531 0.37194718 7.38761389 2.93774331 10.625 6.4375 C13.29132045 9.25154901 15.74951909 11.83301272 19 14 C19.4765625 16.05859375 19.4765625 16.05859375 19.625 18.4375 C19.82026381 21.25952696 20.09380431 23.28141293 21 26 C20.34 26 19.68 26 19 26 C18.67 26.66 18.34 27.32 18 28 C14.28719709 23.81908895 11.60131232 19.78010779 9.1875 14.75 C8.87619141 14.12609375 8.56488281 13.5021875 8.24414062 12.859375 C6 8.28231456 6 8.28231456 6 6 C5.195625 6.020625 4.39125 6.04125 3.5625 6.0625 C1 6 1 6 0 5 C-0.04063832 3.33382885 -0.042721 1.66611905 0 0 Z " fill="#3C9B6C" transform="translate(193,170)"/>
<path d="M0 0 C4.29 0 8.58 0 13 0 C12.01 1.485 12.01 1.485 11 3 C10.71131747 5.11967649 10.71131747 5.11967649 10.77294922 7.47143555 C10.77310028 8.37214279 10.77325134 9.27285004 10.77340698 10.20085144 C10.78372955 11.16968765 10.79405212 12.13852386 10.8046875 13.13671875 C10.8075174 14.13129593 10.81034729 15.12587311 10.81326294 16.15058899 C10.82446511 19.3296813 10.84956986 22.50849272 10.875 25.6875 C10.88502975 27.84179281 10.89415561 29.99609003 10.90234375 32.15039062 C10.92440454 37.43368972 10.95788244 42.71682479 11 48 C10.67 48 10.34 48 10 48 C8.77968102 43.24962333 8.87276339 38.62833736 8.90234375 33.76171875 C8.9037587 32.88095169 8.90517365 32.00018463 8.90663147 31.09272766 C8.91221063 28.29094997 8.92475929 25.48925338 8.9375 22.6875 C8.94251769 20.78320428 8.94708013 18.87890731 8.95117188 16.97460938 C8.96217323 12.31637519 8.97942351 7.65820133 9 3 C7.02 3 5.04 3 3 3 C3.11830372 8.90833871 3.24255625 14.81651111 3.37231445 20.72460938 C3.41561644 22.73434043 3.45729488 24.74410715 3.49731445 26.75390625 C3.55513165 29.64333848 3.61879324 32.53259198 3.68359375 35.421875 C3.70030624 36.31992859 3.71701874 37.21798218 3.73423767 38.14324951 C3.75418289 38.98381897 3.77412811 39.82438843 3.79467773 40.69042969 C3.81022202 41.42767273 3.8257663 42.16491577 3.84178162 42.92449951 C3.94240495 45.01204128 3.94240495 45.01204128 4.50892639 47.03497314 C5.25361108 50.01482257 5.05874477 52.94527199 5 56 C1.35371207 49.67976759 1.86408946 42.63634642 1.90234375 35.5703125 C1.9037587 34.57998016 1.90517365 33.58964783 1.90663147 32.56930542 C1.91220748 29.42117227 1.92475558 26.27311148 1.9375 23.125 C1.9425181 20.98437603 1.94708046 18.84375094 1.95117188 16.703125 C1.96216906 11.46872551 1.97888325 6.23436793 2 1 C1.34 0.67 0.68 0.34 0 0 Z " fill="#0E3E21" transform="translate(152,63)"/>
<path d="M0 0 C1.98 0 3.96 0 6 0 C6.20272358 10.02355489 5.58039956 19.99847189 5 30 C4.34 29.34 3.68 28.68 3 28 C2.01 30.475 2.01 30.475 1 33 C0.67 33 0.34 33 0 33 C0 22.11 0 11.22 0 0 Z " fill="#45AC79" transform="translate(233,53)"/>
<path d="M0 0 C1.76462683 3.08809695 2 4.23312136 2 8 C3.32 7.34 4.64 6.68 6 6 C5.54625 7.2375 5.0925 8.475 4.625 9.75 C1.38000528 19.56349692 0.69406029 29.49386563 0.5859375 39.765625 C0.56657135 40.92503601 0.5472052 42.08444702 0.5272522 43.2789917 C0.46808026 46.93592262 0.42132312 50.5928861 0.375 54.25 C0.33676269 56.74871068 0.29770774 59.24740899 0.2578125 61.74609375 C0.16243102 67.83061831 0.07720632 73.91521909 0 80 C-0.33 80 -0.66 80 -1 80 C-1.15419199 72.28071416 -1.30236935 64.56133248 -1.4429636 56.84178734 C-1.50844081 53.25692824 -1.57595441 49.67213207 -1.64819336 46.08740234 C-1.71788955 42.62507434 -1.78214315 39.16268344 -1.84269524 35.70018387 C-1.8783294 33.74262693 -1.91953427 31.78517395 -1.96083069 29.82772827 C-1.98092697 28.62693634 -2.00102325 27.42614441 -2.02172852 26.18896484 C-2.04171402 25.13639496 -2.06169952 24.08382507 -2.08229065 22.99935913 C-1.99765788 19.91463356 -1.57779672 17.02800912 -1 14 C-1.66 14 -2.32 14 -3 14 C-2.67 12.68 -2.34 11.36 -2 10 C-2.66 10 -3.32 10 -4 10 C-4.33 11.32 -4.66 12.64 -5 14 C-5.33 13.34 -5.66 12.68 -6 12 C-4.78515625 9.1796875 -4.78515625 9.1796875 -3.0625 5.875 C-2.49660156 4.77929688 -1.93070313 3.68359375 -1.34765625 2.5546875 C-0.90292969 1.71164063 -0.45820313 0.86859375 0 0 Z " fill="#266F49" transform="translate(250,186)"/>
<path d="M0 0 C3.875 2.625 3.875 2.625 5 6 C5.47006567 10.18435502 5.68456155 13.75534264 3.625 17.5 C-0.32113139 19.75493222 -4.47904018 20.22642537 -9 20 C-9.99 19.34 -10.98 18.68 -12 18 C-12 16.68 -12 15.36 -12 14 C-8.61981469 12.95994298 -5.5219721 12.91995518 -2 13 C-1.67 10.03 -1.34 7.06 -1 4 C-0.34 4 0.32 4 1 4 C0.67 2.68 0.34 1.36 0 0 Z " fill="#44AB79" transform="translate(292,81)"/>
<path d="M0 0 C2.28783297 0.91513319 3.73449728 1.65484646 5.25 3.625 C6.4767156 7.50959939 6.84871863 12.1156889 5.1484375 15.890625 C4.73322151 18.33113908 4.73322151 18.33113908 7.30859375 20.796875 C8.33917494 21.79421164 9.38280409 22.77820038 10.4375 23.75 C10.96666016 24.25660156 11.49582031 24.76320312 12.04101562 25.28515625 C13.34977101 26.53495869 14.67351959 27.76902618 16 29 C14.140625 29.609375 14.140625 29.609375 12 30 C9.75 28.25 9.75 28.25 8 26 C8 25.01 8 24.02 8 23 C7.34 23 6.68 23 6 23 C6.33 23.99 6.66 24.98 7 26 C6.67 26.99 6.34 27.98 6 29 C6 29.99 6 30.98 6 32 C5.19949219 31.06027344 5.19949219 31.06027344 4.3828125 30.1015625 C-0.46210281 24.78724363 -3.77720616 22.02166051 -11.03125 21.31640625 C-11.6809375 21.21199219 -12.330625 21.10757813 -13 21 C-13.33 20.34 -13.66 19.68 -14 19 C-13.09636719 19.08378906 -12.19273438 19.16757813 -11.26171875 19.25390625 C-10.08222656 19.35574219 -8.90273437 19.45757812 -7.6875 19.5625 C-6.51574219 19.66691406 -5.34398438 19.77132812 -4.13671875 19.87890625 C-0.96967425 20.18577434 -0.96967425 20.18577434 2 19 C2 17.68 2 16.36 2 15 C2.66 15 3.32 15 4 15 C3.91245449 13.24908981 3.80426627 11.49920449 3.6875 9.75 C3.62949219 8.77546875 3.57148437 7.8009375 3.51171875 6.796875 C2.95363476 3.74658389 2.03630224 2.29288724 0 0 Z " fill="#2F8055" transform="translate(118,113)"/>
<path d="M0 0 C12.21 0 24.42 0 37 0 C37 3.63 37 7.26 37 11 C33.04 11 29.08 11 25 11 C25.33 20.9 25.66 30.8 26 41 C21.38 41 16.76 41 12 41 C12.33 40.01 12.66 39.02 13 38 C13 38.66 13 39.32 13 40 C16.63 40 20.26 40 24 40 C24 30.1 24 20.2 24 10 C27.96 10 31.92 10 36 10 C36 7.03 36 4.06 36 1 C24.78 1 13.56 1 2 1 C2 3.64 2 6.28 2 9 C5.63 9 9.26 9 13 9 C13 9.66 13 10.32 13 11 C8.71 11 4.42 11 0 11 C0 7.37 0 3.74 0 0 Z " fill="#606060" transform="translate(235,336)"/>
<path d="M0 0 C-0.33 0.33 -0.66 0.66 -1 1 C-1.12360796 4.03337004 -1.18625735 7.04737655 -1.2109375 10.08203125 C-1.23904701 11.98373196 -1.26771164 13.88542453 -1.296875 15.78710938 C-1.33783938 18.78409234 -1.37471931 21.78093001 -1.40136719 24.77807617 C-1.60770811 46.13258283 -1.60770811 46.13258283 -5 56 C-6.03656771 52.79155448 -5.89230816 50.7947357 -5.1015625 47.54296875 C-3.32647638 38.57356299 -3.52928777 29.42271072 -3.375 20.3125 C-3.33674412 18.43553026 -3.2976882 16.55857665 -3.2578125 14.68164062 C-3.16264805 10.12122738 -3.07832043 5.56073234 -3 1 C-4.98 1 -6.96 1 -9 1 C-8.67 15.52 -8.34 30.04 -8 45 C-8.99 45 -9.98 45 -11 45 C-11 30.15 -11 15.3 -11 0 C-2 -1 -2 -1 0 0 Z " fill="#033016" transform="translate(311,65)"/>
<path d="M0 0 C0.66 0.33 1.32 0.66 2 1 C2.0810206 3.10353495 2.13919907 5.20795952 2.1875 7.3125 C2.22230469 8.48425781 2.25710937 9.65601562 2.29296875 10.86328125 C2 14 2 14 0.80078125 15.86328125 C-1.50194028 17.316843 -3.29490732 17.60932125 -6 17.875 C-7.299375 18.02582031 -7.299375 18.02582031 -8.625 18.1796875 C-11 18 -11 18 -12.8125 16.5078125 C-13.204375 16.01023437 -13.59625 15.51265625 -14 15 C-13 13.5 -13 13.5 -11 12 C-8.28153765 11.72654521 -5.74322801 11.86508715 -3 12 C-3.33 8.7 -3.66 5.4 -4 2 C-2.68 1.34 -1.36 0.68 0 0 Z " fill="#3FA673" transform="translate(185,82)"/>
<path d="M0 0 C1.98 0 3.96 0 6 0 C6 3 6 3 4.43945312 4.90112305 C3.37114258 5.94586792 3.37114258 5.94586792 2.28125 7.01171875 C1.51425781 7.76904297 0.74726563 8.52636719 -0.04296875 9.30664062 C-0.85378906 10.09232422 -1.66460937 10.87800781 -2.5 11.6875 C-3.31082031 12.48478516 -4.12164062 13.28207031 -4.95703125 14.10351562 C-6.96482203 16.0758748 -8.9792687 18.04091492 -11 20 C-13.475 19.01 -13.475 19.01 -16 18 C-16 17.01 -16 16.02 -16 15 C-13.0936485 12.19744677 -12.21174952 12 -8 12 C-7.7525 11.4225 -7.505 10.845 -7.25 10.25 C-5.83073705 7.6953267 -4.05930146 6.05930146 -2 4 C-0.76487921 1.86690808 -0.76487921 1.86690808 0 0 Z " fill="#45AC7A" transform="translate(332,141)"/>
<path d="M0 0 C10.56 0 21.12 0 32 0 C32 0.66 32 1.32 32 2 C22.1 2 12.2 2 2 2 C2 14.54 2 27.08 2 40 C1.67 40 1.34 40 1 40 C0.82860405 35.95851988 0.66379672 31.91679468 0.5 27.875 C0.45230469 26.75222656 0.40460938 25.62945312 0.35546875 24.47265625 C0.31035156 23.34472656 0.26523437 22.21679688 0.21875 21.0546875 C0.17685547 20.03874512 0.13496094 19.02280273 0.09179688 17.97607422 C-0.04650783 11.98556768 0 5.99210287 0 0 Z " fill="#919191" transform="translate(353,336)"/>
<path d="M0 0 C3.2531655 3.74114033 5.44374911 8.31315138 7 13 C6.67 13.66 6.34 14.32 6 15 C5.01 14.34 4.02 13.68 3 13 C0.7226499 15.81509993 0.7226499 15.81509993 1 19 C-3.31796903 15.11382787 -4.74323774 12.12745871 -5.4375 6.375 C-5 3 -5 3 -2.5 1.0625 C-1.675 0.711875 -0.85 0.36125 0 0 Z " fill="#348C5F" transform="translate(162,111)"/>
<path d="M0 0 C3.125 2 3.125 2 5 4 C4.67 4.66 4.34 5.32 4 6 C2.9790625 5.01 2.9790625 5.01 1.9375 4 C-1.64457375 1.56114128 -3.75519536 1.66707415 -8 2 C-7.24849977 5.27773504 -7.24849977 5.27773504 -4 7 C-5.65 7.66 -7.3 8.32 -9 9 C-8.67 11.31 -8.34 13.62 -8 16 C-11 14.25 -11 14.25 -14 12 C-14 10.68 -14 9.36 -14 8 C-14.66 8 -15.32 8 -16 8 C-16 10.64 -16 13.28 -16 16 C-16.33 16 -16.66 16 -17 16 C-17.76140684 8.38593156 -17.76140684 8.38593156 -15.95703125 5.1015625 C-11.29480881 -0.50404219 -6.97826738 -0.84352683 0 0 Z " fill="#27774D" transform="translate(285,32)"/>
<path d="M0 0 C0.33 0.99 0.66 1.98 1 3 C2.99665314 4.68538601 2.99665314 4.68538601 5 6 C1.49996281 8.95859497 -1.98018528 11.23263548 -6.0625 13.3125 C-7.59583984 14.11107422 -7.59583984 14.11107422 -9.16015625 14.92578125 C-12.08832016 16.03340859 -13.15950804 16.16480606 -16 15 C-15.34 15 -14.68 15 -14 15 C-14 14.34 -14 13.68 -14 13 C-11.36 12.67 -8.72 12.34 -6 12 C-6 10.35 -6 8.7 -6 7 C-7.98 7 -9.96 7 -12 7 C-2.9 0 -2.9 0 0 0 Z " fill="#2E7F57" transform="translate(316,156)"/>
<path d="M0 0 C1.32 0 2.64 0 4 0 C3.55279089 4.91930016 1.30443069 8.44842353 -2 12 C-4.8125 13.4375 -4.8125 13.4375 -7 14 C-9 11 -9 11 -8.875 7.4375 C-8 4 -8 4 -6.0625 2.5625 C-4 2 -4 2 -2 2 C-1.34 1.34 -0.68 0.68 0 0 Z " fill="#328A5D" transform="translate(259,180)"/>
<path d="M0 0 C3.3 0 6.6 0 10 0 C10 15.18 10 30.36 10 46 C9.67 46 9.34 46 9 46 C7.80463539 41.31367437 7.87240164 36.77970671 7.90234375 31.98046875 C7.9037587 31.12189774 7.90517365 30.26332672 7.90663147 29.3787384 C7.91220943 26.64828951 7.92475786 23.91792393 7.9375 21.1875 C7.94251785 19.3313814 7.94708026 17.4752615 7.95117188 15.61914062 C7.96217164 11.0793952 7.97942107 6.5397117 8 2 C6.02 2 4.04 2 2 2 C2 12.23 2 22.46 2 33 C0.35 31.68 -1.3 30.36 -3 29 C-2.67 28.34 -2.34 27.68 -2 27 C-0.515 27.99 -0.515 27.99 1 29 C0.67 19.43 0.34 9.86 0 0 Z " fill="#06381B" transform="translate(172,99)"/>
<path d="M0 0 C6.24 -0.48 6.24 -0.48 9.375 1.5 C11.58481518 4.89971566 12.49912667 7.93453279 12 12 C9.6875 15 9.6875 15 7 17 C6.34 17 5.68 17 5 17 C5.03480469 16.41992188 5.06960938 15.83984375 5.10546875 15.2421875 C5.28704094 10.00253301 4.89065287 6.55833721 2 2 C1.34 1.34 0.68 0.68 0 0 Z " fill="#43B07A" transform="translate(304,44)"/>
<path d="M0 0 C0.66 0 1.32 0 2 0 C2.33 0.99 2.66 1.98 3 3 C5.72499216 5.00017076 5.72499216 5.00017076 8 5.6875 C11.13676608 7.74600274 11.71419294 10.52832093 13 14 C11.02 14.99 11.02 14.99 9 16 C8.4225 15.38125 7.845 14.7625 7.25 14.125 C5.19049456 11.94240783 5.19049456 11.94240783 2.875 11.0625 C1 10 1 10 -0.3125 7.6875 C-1.07479299 4.7076274 -0.83686751 2.9290363 0 0 Z " fill="#40A773" transform="translate(124,136)"/>
<path d="M0 0 C0.33 0 0.66 0 1 0 C1 1.65 1 3.3 1 5 C1.99 4.67 2.98 4.34 4 4 C5.99741736 3.8807098 7.99906124 3.82476065 10 3.8125 C11.051875 3.79832031 12.10375 3.78414063 13.1875 3.76953125 C16 4 16 4 19 6 C19.328125 8.12890625 19.328125 8.12890625 19.25 10.5625 C19.23453125 11.36816406 19.2190625 12.17382812 19.203125 13.00390625 C19 15 19 15 18 16 C15.13732433 16.07325168 12.299281 16.09238205 9.4375 16.0625 C8.63119141 16.05798828 7.82488281 16.05347656 6.99414062 16.04882812 C4.99606244 16.03700518 2.99802217 16.01906914 1 16 C0.67 15.34 0.34 14.68 0 14 C5.61 14 11.22 14 17 14 C17 11.36 17 8.72 17 6 C11.39 6 5.78 6 0 6 C0 4.02 0 2.04 0 0 Z " fill="#3F3F3F" transform="translate(365,346)"/>
<path d="M0 0 C0 3.41099168 -0.49145406 6.63088314 -1 10 C-0.01 10.33 0.98 10.66 2 11 C1.06409496 12.1055189 0.12620142 13.20935453 -0.8125 14.3125 C-1.59560547 15.23482422 -1.59560547 15.23482422 -2.39453125 16.17578125 C-3.87172469 17.85424679 -5.40039131 19.43882034 -7 21 C-7.66 20.67 -8.32 20.34 -9 20 C-6.375 16.125 -6.375 16.125 -3 15 C-3.66 13.68 -4.32 12.36 -5 11 C-5.94875 11.495 -6.8975 11.99 -7.875 12.5 C-11 14 -11 14 -13 14 C-13 10.04 -13 6.08 -13 2 C-12.67 2 -12.34 2 -12 2 C-11.67 4.97 -11.34 7.94 -11 11 C-9.72486237 9.92173635 -8.45507431 8.83714481 -7.1875 7.75 C-6.47980469 7.14671875 -5.77210938 6.5434375 -5.04296875 5.921875 C-3.08110329 4.07629602 -1.54330375 2.20054668 0 0 Z " fill="#1E5B3C" transform="translate(229,90)"/>
<path d="M0 0 C0.33 0 0.66 0 1 0 C1.33 2.64 1.66 5.28 2 8 C1.34 8 0.68 8 0 8 C0.12375 8.99 0.12375 8.99 0.25 10 C-0.54760669 19.57128022 -7.70191094 24.70187743 -14.41308594 30.57568359 C-18.45041407 34.19934088 -22.20348173 38.12788734 -26 42 C-26 39 -26 39 -24.53466797 37.25756836 C-23.52364014 36.30829468 -23.52364014 36.30829468 -22.4921875 35.33984375 C-21.75226563 34.62763672 -21.01234375 33.91542969 -20.25 33.18164062 C-18.69269639 31.7101424 -17.13288358 30.24129417 -15.5703125 28.77539062 C-8.63195174 22.08226503 -3.13837967 14.99448065 -1.125 5.375 C-0.90070313 4.35148438 -0.67640625 3.32796875 -0.4453125 2.2734375 C-0.29835938 1.52320313 -0.15140625 0.77296875 0 0 Z " fill="#175331" transform="translate(281,140)"/>
<path d="M0 0 C3.3 0 6.6 0 10 0 C9.67 9.24 9.34 18.48 9 28 C9.99 27.67 10.98 27.34 12 27 C11.34 28.32 10.68 29.64 10 31 C9.34 30.67 8.68 30.34 8 30 C8 20.76 8 11.52 8 2 C6.02 2 4.04 2 2 2 C2 14.54 2 27.08 2 40 C1.67 40 1.34 40 1 40 C0.67 26.8 0.34 13.6 0 0 Z " fill="#033D19" transform="translate(281,100)"/>
<path d="M0 0 C0.4375 2.0625 0.4375 2.0625 0 5 C-1.62584247 6.95800384 -3.39138958 8.63492064 -5.265625 10.35546875 C-7.12488596 11.99322693 -7.12488596 11.99322693 -8.5625 14.375 C-10.69797508 16.78901531 -12.89410044 16.72392004 -16 17 C-16 13 -16 13 -14.5390625 11.515625 C-13.90742188 11.09796875 -13.27578125 10.6803125 -12.625 10.25 C-11.99851562 9.82203125 -11.37203125 9.3940625 -10.7265625 8.953125 C-9 8 -9 8 -7 8 C-5.5393715 5.35261084 -5 4.10551666 -5 1 C-2 0 -2 0 0 0 Z " fill="#44AD78" transform="translate(268,61)"/>
<path d="M0 0 C0.66 0 1.32 0 2 0 C2 1.32 2 2.64 2 4 C2.556875 4.2475 3.11375 4.495 3.6875 4.75 C8.48277451 7.34204027 11.37939297 9.69619518 13 15 C8.37390802 15.3227506 5.71973879 14.84450614 2 12 C2 11.34 2 10.68 2 10 C1.34 10 0.68 10 0 10 C0 6.7 0 3.4 0 0 Z M1 4 C2 6 2 6 2 6 Z " fill="#44A877" transform="translate(269,40)"/>
<path d="M0 0 C5.07538965 0.49921865 6.48704991 1.5507324 9.8125 5.375 C9.875 8.5625 9.875 8.5625 8.8125 11.375 C7.8225 12.035 6.8325 12.695 5.8125 13.375 C5.626875 12.611875 5.44125 11.84875 5.25 11.0625 C3.25182409 7.32677982 0.62839066 6.9707361 -3.1875 5.375 C-4.1875 3.25 -4.1875 3.25 -4.1875 1.375 C-3.1875 0.375 -3.1875 0.375 0 0 Z " fill="#44AB7B" transform="translate(280.1875,32.625)"/>
<path d="M0 0 C5.7278019 0.28639009 8.7448153 0.87778983 13 5 C12.01 5 11.02 5 10 5 C9.34 6.32 8.68 7.64 8 9 C8.66 9.33 9.32 9.66 10 10 C10 10.66 10 11.32 10 12 C5.05336307 10.76334077 2.76777505 9.30542785 0 5 C-0.8125 2.75 -0.8125 2.75 -1 1 C-0.67 0.67 -0.34 0.34 0 0 Z " fill="#2D7D52" transform="translate(144,157)"/>
<path d="M0 0 C0.33 0.99 0.66 1.98 1 3 C2.32 3 3.64 3 5 3 C5 4.32 5 5.64 5 7 C7.31 7.33 9.62 7.66 12 8 C13.00217064 4.41672247 13.00217064 4.41672247 12 1 C13.32 1.66 14.64 2.32 16 3 C16.20086443 6.71599191 16.1519437 7.77208445 14 11 C13.24074219 10.91621094 12.48148438 10.83242187 11.69921875 10.74609375 C10.20841797 10.59333984 10.20841797 10.59333984 8.6875 10.4375 C7.70136719 10.33308594 6.71523437 10.22867188 5.69921875 10.12109375 C2.90069653 9.83397473 2.90069653 9.83397473 0 11 C-1.26026798 8.47946405 -0.91874445 7.1457902 -0.5625 4.375 C-0.46066406 3.55773437 -0.35882813 2.74046875 -0.25390625 1.8984375 C-0.17011719 1.27195312 -0.08632812 0.64546875 0 0 Z " fill="#45AA79" transform="translate(102,118)"/>
<path d="M0 0 C0.226875 0.639375 0.45375 1.27875 0.6875 1.9375 C1.84328123 4.24992358 1.84328123 4.24992358 4.5 4.75 C6.91293425 5.03316791 6.91293425 5.03316791 9 5 C8.67 6.32 8.34 7.64 8 9 C8.66 9.33 9.32 9.66 10 10 C10 10.66 10 11.32 10 12 C2.71070615 12.36446469 2.71070615 12.36446469 -0.4375 10.75 C-2.26262441 8.70586067 -2.91911632 7.75004514 -3 5 C-1.5625 2.25 -1.5625 2.25 0 0 Z " fill="#3DA171" transform="translate(230,39)"/>
<path d="M0 0 C0.99 0.99 1.98 1.98 3 3 C2.42378906 3.08765625 1.84757812 3.1753125 1.25390625 3.265625 C-4.67196491 5.19641144 -9.10078509 11.7538016 -12 17 C-14.97980666 20.9992142 -17.08872787 23.70755997 -22 25 C-22.99 25 -23.98 25 -25 25 C-16.75 16.75 -8.5 8.5 0 0 Z " fill="#1C5D37" transform="translate(341,130)"/>
<path d="M0 0 C1.32 0.66 2.64 1.32 4 2 C4 4.64 4 7.28 4 10 C3.34 10 2.68 10 2 10 C1.67 11.65 1.34 13.3 1 15 C0.01 15 -0.98 15 -2 15 C-3.3364048 9.65438081 -2.57341421 6.15730212 -1 1 C-0.67 0.67 -0.34 0.34 0 0 Z " fill="#44AC7A" transform="translate(219,63)"/>
<path d="M0 0 C1.65 0 3.3 0 5 0 C5 1.65 5 3.3 5 5 C3.9171875 5.309375 3.9171875 5.309375 2.8125 5.625 C0.03790422 6.98146905 -0.80176794 7.77530276 -2.625 10.125 C-3.40875 11.07375 -4.1925 12.0225 -5 13 C-5.99 13 -6.98 13 -8 13 C-8.25 10.75 -8.25 10.75 -8 8 C-6.125 5.875 -6.125 5.875 -4 4 C-3.34 3.01 -2.68 2.02 -2 1 C-1.34 1.33 -0.68 1.66 0 2 C0 1.34 0 0.68 0 0 Z " fill="#45AF7B" transform="translate(174,78)"/>
<path d="M0 0 C5.36170213 0.59574468 5.36170213 0.59574468 7.875 2.1875 C9.49664405 4.80014875 9.20031953 6.99520702 9 10 C7.68 10.33 6.36 10.66 5 11 C1 6.25 1 6.25 1 4 C-0.65 4 -2.3 4 -4 4 C-3.67 3.34 -3.34 2.68 -3 2 C-2.34 2.33 -1.68 2.66 -1 3 C-0.67 2.01 -0.34 1.02 0 0 Z " fill="#43AE78" transform="translate(237,30)"/>
<path d="M0 0 C0.33 0.66 0.66 1.32 1 2 C0.0625 4.625 0.0625 4.625 -1 7 C-8.625 8.25 -8.625 8.25 -12 6 C-12 4.68 -12 3.36 -12 2 C-8.06094403 0.85110867 -4.06434042 0.47417305 0 0 Z " fill="#45AE77" transform="translate(292,93)"/>
<path d="M0 0 C0.33 0.99 0.66 1.98 1 3 C-0.65 3.66 -2.3 4.32 -4 5 C-4 5.99 -4 6.98 -4 8 C-6.72648441 11.02942713 -9.58457045 13.76230478 -13 16 C-13.66 16 -14.32 16 -15 16 C-13.5810577 11.54275753 -11.38094472 9.00509702 -8.0625 5.75 C-6.74958984 4.44289063 -6.74958984 4.44289063 -5.41015625 3.109375 C-3 1 -3 1 0 0 Z " fill="#33835A" transform="translate(267,58)"/>
<path d="M0 0 C1.26630883 3.7989265 0.48435184 5.26066748 -0.8125 9 C-1.16957031 10.051875 -1.52664063 11.10375 -1.89453125 12.1875 C-3 15 -3 15 -5 18 C-5.928125 17.4740625 -5.928125 17.4740625 -6.875 16.9375 C-7.57625 16.628125 -8.2775 16.31875 -9 16 C-9.66 16.33 -10.32 16.66 -11 17 C-10.9375 14.6875 -10.9375 14.6875 -10 12 C-8.24565906 11.35024409 -6.49006161 10.70317333 -4.72265625 10.08984375 C-1.72015812 8.19030412 -1.28639839 5.15312449 -0.41015625 1.86328125 C-0.20712891 0.94095703 -0.20712891 0.94095703 0 0 Z " fill="#2B7A52" transform="translate(289,142)"/>
<path d="M0 0 C1.32 0.99 2.64 1.98 4 3 C0.7 2.67 -2.6 2.34 -6 2 C-5.67 2.99 -5.34 3.98 -5 5 C-5.99 4.67 -6.98 4.34 -8 4 C-11.79011705 7.5945672 -11.79011705 7.5945672 -13.33203125 12.40234375 C-13.31450906 14.62065332 -13.22068846 16.79311543 -13 19 C-13.66 18.67 -14.32 18.34 -15 18 C-16.11563922 13.29837756 -16.55072037 11.14549837 -14.4375 6.75 C-10.22052312 1.99238505 -6.56375264 -0.99883192 0 0 Z " fill="#216140" transform="translate(180,76)"/>
<path d="M0 0 C0.33 0 0.66 0 1 0 C1.33 14.52 1.66 29.04 2 44 C1.01 44 0.02 44 -1 44 C-1.11707333 29.2937883 -0.97960349 14.6765594 0 0 Z " fill="#195C3B" transform="translate(301,66)"/>
<path d="M0 0 C2.75 -0.3125 2.75 -0.3125 6 0 C8.68025834 2.18652654 9.83564584 3.80843237 10.3125 7.265625 C10.37233094 9.58407411 10.38658201 11.7119739 10 14 C9.34 14.66 8.68 15.32 8 16 C7.67 12.04 7.34 8.08 7 4 C5.39125 4.556875 5.39125 4.556875 3.75 5.125 C0 6 0 6 -2.4375 5.125 C-2.953125 4.75375 -3.46875 4.3825 -4 4 C-2.68 4 -1.36 4 0 4 C0 2.68 0 1.36 0 0 Z " fill="#2F8057" transform="translate(179,79)"/>
<path d="M0 0 C0 0.33 0 0.66 0 1 C-1.2375 1.144375 -2.475 1.28875 -3.75 1.4375 C-6.56504499 1.78688502 -9.2701497 2.20379366 -12 3 C-12.144375 3.61875 -12.28875 4.2375 -12.4375 4.875 C-13 7 -13 7 -14 9 C-14.66 9 -15.32 9 -16 9 C-15.34 12.63 -14.68 16.26 -14 20 C-17.5761877 16.4238123 -17.83167183 14.96568113 -18 10 C-16.34349242 5.30656186 -14.14105302 2.72703492 -10 0 C-6.52395028 -1.45769827 -3.6273284 -0.74195354 0 0 Z " fill="#195333" transform="translate(310,42)"/>
<path d="M0 0 C0.66 0.99 1.32 1.98 2 3 C1.34 3 0.68 3 0 3 C0 4.32 0 5.64 0 7 C-1.30144802 8.04115841 -2.63838689 9.03886134 -4 10 C-4.70937051 11.31111239 -5.38272004 12.64309629 -6 14 C-7.13033298 12.75482035 -8.25405036 11.50363348 -9.375 10.25 C-10.00148437 9.55390625 -10.62796875 8.8578125 -11.2734375 8.140625 C-12.87505183 6.15491312 -13.96520068 4.32045907 -15 2 C-14.34 2 -13.68 2 -13 2 C-11.2856382 3.95927063 -9.61594832 5.95880212 -8 8 C-7.01 7.67 -6.02 7.34 -5 7 C-5.33 5.02 -5.66 3.04 -6 1 C-4.35 1.99 -2.7 2.98 -1 4 C-0.67 2.68 -0.34 1.36 0 0 Z " fill="#20653E" transform="translate(230,152)"/>
<path d="M0 0 C2.31 1.65 4.62 3.3 7 5 C5.68 5.33 4.36 5.66 3 6 C2.01 6.495 2.01 6.495 1 7 C1.99 8.98 2.98 10.96 4 13 C1.00779732 11.63629701 -1.29026529 10.05091917 -3.75 7.875 C-4.36359375 7.33617187 -4.9771875 6.79734375 -5.609375 6.2421875 C-6.06828125 5.83226562 -6.5271875 5.42234375 -7 5 C-4.66666667 5 -2.33333333 5 0 5 C-0.33 4.01 -0.66 3.02 -1 2 C-0.67 1.34 -0.34 0.68 0 0 Z " fill="#246D45" transform="translate(143,152)"/>
<path d="M0 0 C4.29 0 8.58 0 13 0 C12.54177532 3.46941546 12.10868317 6.67395049 11 10 C10.34 10 9.68 10 9 10 C9.52268466 7.23723823 10.10869587 4.6739124 11 2 C7.7 2 4.4 2 1 2 C0.67 2.99 0.34 3.98 0 5 C-0.33 4.01 -0.66 3.02 -1 2 C-0.67 1.34 -0.34 0.68 0 0 Z " fill="#6D6D6D" transform="translate(71,336)"/>
<path d="M0 0 C4.41510774 0.48713098 6.30446645 1.85053197 9.3125 5.0625 C10.00988281 5.79597656 10.70726562 6.52945313 11.42578125 7.28515625 C11.94527344 7.85105469 12.46476563 8.41695312 13 9 C10 9 10 9 8.125 7.5 C5.53710595 5.67325126 4.09524079 5.83268969 1 6 C0 5 0 5 -0.0625 2.4375 C-0.041875 1.633125 -0.02125 0.82875 0 0 Z " fill="#44AD7C" transform="translate(193,170)"/>
<path d="M0 0 C1.65 0 3.3 0 5 0 C6.23921302 2.97411124 7.30058404 5.85262818 8 9 C7.34 9 6.68 9 6 9 C5.67 9.66 5.34 10.32 5 11 C2.90250005 8.64031256 2.03094296 7.45383006 1.8125 4.25 C1.874375 3.5075 1.93625 2.765 2 2 C1.34 2 0.68 2 0 2 C0 1.34 0 0.68 0 0 Z " fill="#45AF79" transform="translate(206,187)"/>
<path d="M0 0 C0.66 1.65 1.32 3.3 2 5 C1 6 1 6 -1.875 6.25 C-5 6 -5 6 -6.875 4.5 C-7.24625 4.005 -7.6175 3.51 -8 3 C-5.53387212 -0.1151089 -3.89156016 -0.31553191 0 0 Z " fill="#44AF76" transform="translate(179,94)"/>
<path d="M0 0 C4.455 0.99 4.455 0.99 9 2 C9.33 1.34 9.66 0.68 10 0 C10.04254356 1.99954746 10.04080783 4.00041636 10 6 C9 7 9 7 5.9375 7.0625 C4.968125 7.041875 3.99875 7.02125 3 7 C2.67 5.35 2.34 3.7 2 2 C1.34 2 0.68 2 0 2 C0 1.34 0 0.68 0 0 Z " fill="#44AF7B" transform="translate(153,57)"/>
<path d="M0 0 C0.66 0 1.32 0 2 0 C2.33 0.66 2.66 1.32 3 2 C5.01669827 3.13350534 5.01669827 3.13350534 7 4 C6.67 5.32 6.34 6.64 6 8 C2 8 2 8 0.1875 6.8125 C-1 5 -1 5 -0.6875 2.3125 C-0.460625 1.549375 -0.23375 0.78625 0 0 Z " fill="#46AE7A" transform="translate(219,152)"/>
<path d="M0 0 C2.64 0.33 5.28 0.66 8 1 C8 2.32 8 3.64 8 5 C5.1875 5.625 5.1875 5.625 2 6 C1.01 5.34 0.02 4.68 -1 4 C-0.67 2.68 -0.34 1.36 0 0 Z " fill="#43AC7C" transform="translate(348,112)"/>
<path d="M0 0 C2.64 0 5.28 0 8 0 C8.103125 0.70125 8.20625 1.4025 8.3125 2.125 C8.91491667 5.14102327 8.91491667 5.14102327 10.625 8.1875 C11.07875 9.115625 11.5325 10.04375 12 11 C11.67 11.66 11.34 12.32 11 13 C9.16365966 11.02354928 7.33083938 9.044035 5.5 7.0625 C4.71302734 6.21655273 4.71302734 6.21655273 3.91015625 5.35351562 C0 1.11328125 0 1.11328125 0 0 Z " fill="#2B7851" transform="translate(192,175)"/>
<path d="M0 0 C-0.33 1.65 -0.66 3.3 -1 5 C-3.31 5.33 -5.62 5.66 -8 6 C-8 4.35 -8 2.7 -8 1 C-3.375 -1.125 -3.375 -1.125 0 0 Z " fill="#43AD79" transform="translate(311,163)"/>
<path d="M0 0 C2.79828356 0.38597015 3.8205884 0.80136573 5.75 2.9375 C7 5 7 5 7 7 C6.01 7.33 5.02 7.66 4 8 C4 7.01 4 6.02 4 5 C3.34 5 2.68 5 2 5 C1.34 6.32 0.68 7.64 0 9 C-1.125 2.25 -1.125 2.25 0 0 Z " fill="#379163" transform="translate(217,147)"/>
<path d="M0 0 C0.33 0 0.66 0 1 0 C1 10.23 1 20.46 1 31 C-0.65 29.68 -2.3 28.36 -4 27 C-3.67 26.34 -3.34 25.68 -3 25 C-1.515 25.99 -1.515 25.99 0 27 C0 18.09 0 9.18 0 0 Z " fill="#1B6741" transform="translate(173,101)"/>
<path d="M0 0 C1.75 1.4375 1.75 1.4375 3 3 C2.01 3.495 2.01 3.495 1 4 C0.855625 4.66 0.71125 5.32 0.5625 6 C0.376875 6.66 0.19125 7.32 0 8 C-0.99 8.33 -1.98 8.66 -3 9 C-5 6 -5 6 -4.625 3.3125 C-4.41875 2.549375 -4.2125 1.78625 -4 1 C-2.1875 0.3125 -2.1875 0.3125 0 0 Z " fill="#45AC7C" transform="translate(255,185)"/>
<path d="M0 0 C0 2 0 2 -1.1875 3.625 C-3.59765989 5.45339716 -5.02790634 5.21747027 -8 5 C-9.32 5 -10.64 5 -12 5 C-11.34 3.68 -10.68 2.36 -10 1 C-9.05125 1.020625 -8.1025 1.04125 -7.125 1.0625 C-4.31337204 1.00626744 -2.6726858 0 0 0 Z " fill="#44B17B" transform="translate(359,128)"/>
<path d="M0 0 C2 2 2 2 2.375 5.75 C2.27182091 10.09939555 0.89017566 12.6969421 -2 16 C-2.99 16 -3.98 16 -5 16 C-4.67 14.68 -4.34 13.36 -4 12 C-3.34 12 -2.68 12 -2 12 C-0.61721323 7.85163969 0 4.39131337 0 0 Z " fill="#236343" transform="translate(315,48)"/>
<path d="M0 0 C0.33 0 0.66 0 1 0 C1 8.58 1 17.16 1 26 C1.99 25.67 2.98 25.34 4 25 C3.34 26.32 2.68 27.64 2 29 C1.34 28.67 0.68 28.34 0 28 C0 18.76 0 9.52 0 0 Z " fill="#135532" transform="translate(289,102)"/>
<path d="M0 0 C0.33 0 0.66 0 1 0 C1 2.64 1 5.28 1 8 C4.63 8 8.26 8 12 8 C12 8.66 12 9.32 12 10 C7.71 10 3.42 10 -1 10 C-0.67 6.7 -0.34 3.4 0 0 Z " fill="#828282" transform="translate(236,337)"/>
<path d="M0 0 C2.97 0.495 2.97 0.495 6 1 C5.67 2.98 5.34 4.96 5 7 C4.01 7 3.02 7 2 7 C0.25 4.625 0.25 4.625 -1 2 C-0.67 1.34 -0.34 0.68 0 0 Z " fill="#46AD76" transform="translate(144,157)"/>
<path d="M0 0 C0.99 0.33 1.98 0.66 3 1 C3 2.65 3 4.3 3 6 C1.25 6.75 1.25 6.75 -1 7 C-3.25 5.0625 -3.25 5.0625 -5 3 C-4.360625 2.690625 -3.72125 2.38125 -3.0625 2.0625 C-1.06389179 1.1654837 -1.06389179 1.1654837 0 0 Z " fill="#45AD77" transform="translate(140,151)"/>
<path d="M0 0 C1.32 0.66 2.64 1.32 4 2 C4.20086443 5.71599191 4.1519437 6.77208445 2 10 C-1.125 10.1875 -1.125 10.1875 -4 10 C-4.66 8.68 -5.32 7.36 -6 6 C-3.03 6.495 -3.03 6.495 0 7 C1.00217064 3.41672247 1.00217064 3.41672247 0 0 Z " fill="#20633F" transform="translate(114,119)"/>
<path d="M0 0 C1.35544922 0.10828125 1.35544922 0.10828125 2.73828125 0.21875 C3.91777344 0.3115625 5.09726563 0.404375 6.3125 0.5 C7.48425781 0.5928125 8.65601562 0.685625 9.86328125 0.78125 C11.905194 0.92364989 13.9531279 1 16 1 C15.67 2.98 15.34 4.96 15 7 C14.44699219 6.52691406 13.89398438 6.05382812 13.32421875 5.56640625 C10.72743081 3.81630211 8.88626716 3.40514847 5.8125 2.9375 C3.14453125 2.52734375 3.14453125 2.52734375 1 2 C0.67 1.34 0.34 0.68 0 0 Z " fill="#1A593A" transform="translate(104,132)"/>
<path d="M0 0 C0.66 0 1.32 0 2 0 C2 0.66 2 1.32 2 2 C5.63 2 9.26 2 13 2 C13 2.33 13 2.66 13 3 C4.50375215 3.89073566 -3.51118727 3.99418527 -12 3 C-12 2.67 -12 2.34 -12 2 C-8.04 2 -4.08 2 0 2 C0 1.34 0 0.68 0 0 Z " fill="#5E5E5E" transform="translate(140,374)"/>
<path d="M0 0 C0.66 0 1.32 0 2 0 C2.53229326 1.26607607 3.05044544 2.53810412 3.5625 3.8125 C3.85253906 4.52019531 4.14257812 5.22789062 4.44140625 5.95703125 C5 8 5 8 4 11 C2.515 8.03 2.515 8.03 1 5 C-0.485 7.475 -0.485 7.475 -2 10 C-3.39195915 5.82412255 -1.82323219 3.86525224 0 0 Z " fill="#373737" transform="translate(163,349)"/>
<path d="M0 0 C0.99 0.33 1.98 0.66 3 1 C2.06409496 2.1055189 1.12620142 3.20935453 0.1875 4.3125 C-0.33457031 4.92738281 -0.85664063 5.54226562 -1.39453125 6.17578125 C-2.87172469 7.85424679 -4.40039131 9.43882034 -6 11 C-6.66 10.67 -7.32 10.34 -8 10 C-5.375 6.125 -5.375 6.125 -2 5 C-2 3.68 -2 2.36 -2 1 C-1.34 0.67 -0.68 0.34 0 0 Z " fill="#23643F" transform="translate(228,100)"/>
<path d="M0 0 C4.13621084 3.3810038 7.81316569 6.66590534 11 11 C9.35 11 7.7 11 6 11 C6 10.34 6 9.68 6 9 C5.01 8.34 4.02 7.68 3 7 C0 2.55555556 0 2.55555556 0 0 Z " fill="#246543" transform="translate(123,132)"/>
<path d="M0 0 C2.05078125 0.03255208 4.1015625 0.06510417 6.15234375 0.09765625 C6.15234375 1.08765625 6.15234375 2.07765625 6.15234375 3.09765625 C4.50234375 3.09765625 2.85234375 3.09765625 1.15234375 3.09765625 C0.49234375 4.74765625 -0.16765625 6.39765625 -0.84765625 8.09765625 C-1.17765625 8.09765625 -1.50765625 8.09765625 -1.84765625 8.09765625 C-2.22828846 5.77157055 -2.5603557 3.43710361 -2.84765625 1.09765625 C-1.84765625 0.09765625 -1.84765625 0.09765625 0 0 Z " fill="#266F49" transform="translate(301.84765625,47.90234375)"/>
<path d="M0 0 C1.875 0.625 1.875 0.625 4 2 C5.25 5.125 5.25 5.125 6 8 C4 10 4 10 2.0546875 10.1953125 C0.03645833 10.13020833 -1.98177083 10.06510417 -4 10 C-4 9.67 -4 9.34 -4 9 C-2.02 9 -0.04 9 2 9 C2.23428313 4.2102679 2.23428313 4.2102679 0 0 Z " fill="#195C37" transform="translate(281,39)"/>
<path d="M0 0 C1.2065625 0.0309375 1.2065625 0.0309375 2.4375 0.0625 C2.7675 1.0525 3.0975 2.0425 3.4375 3.0625 C1.4575 3.0625 -0.5225 3.0625 -2.5625 3.0625 C-2.76336443 6.77849191 -2.7144437 7.83458445 -0.5625 11.0625 C-1.8825 10.4025 -3.2025 9.7425 -4.5625 9.0625 C-3.56521739 0.08695652 -3.56521739 0.08695652 0 0 Z " fill="#1F603C" transform="translate(235.5625,33.9375)"/>
<path d="M0 0 C1.98 0 3.96 0 6 0 C6 0.66 6 1.32 6 2 C6.66 2.33 7.32 2.66 8 3 C8 3.66 8 4.32 8 5 C6.02 5 4.04 5 2 5 C2 4.34 2 3.68 2 3 C1.34 2.67 0.68 2.34 0 2 C0 1.34 0 0.68 0 0 Z " fill="#46B07C" transform="translate(232,46)"/>
<path d="M0 0 C2.29013653 3.4352048 2.17842973 4.985331 2 9 C1.01 9.33 0.02 9.66 -1 10 C-1 9.34 -1 8.68 -1 8 C-1.66 8 -2.32 8 -3 8 C-2.09456151 5.28368454 -1.07525194 2.65228812 0 0 Z " fill="#2C8256" transform="translate(290,38)"/>
<path d="M0 0 C0.99 0.33 1.98 0.66 3 1 C3.6875 3.0625 3.6875 3.0625 4 5 C2.02 5.99 2.02 5.99 0 7 C-0.99 5.68 -1.98 4.36 -3 3 C-2.01 3 -1.02 3 0 3 C0 2.01 0 1.02 0 0 Z " fill="#45AE7A" transform="translate(133,145)"/>
<path d="M0 0 C0 0.33 0 0.66 0 1 C-9.41002278 3.11161731 -9.41002278 3.11161731 -14 4 C-10.36515075 -1.28705346 -5.79646176 -0.3982302 0 0 Z " fill="#246A42" transform="translate(217,58)"/>
<path d="M0 0 C3.0916909 2.52956528 3.90931332 5.22454612 5 9 C3.68 9 2.36 9 1 9 C0.29925156 5.846632 0 3.27275026 0 0 Z " fill="#277448" transform="translate(212,186)"/>
<path d="M0 0 C2.62187494 1.04874998 3.79371361 1.64931313 5.25 4.125 C5.4975 4.74375 5.745 5.3625 6 6 C5.38125 5.79375 4.7625 5.5875 4.125 5.375 C3.42375 5.25125 2.7225 5.1275 2 5 C1.34 5.66 0.68 6.32 0 7 C-1.33332095 4.3333581 -0.67102033 2.83319697 0 0 Z " fill="#2A8055" transform="translate(217,59)"/>
<path d="M0 0 C3 2 3 2 3.58203125 3.875 C3.65808594 4.57625 3.73414063 5.2775 3.8125 6 C3.90144531 6.70125 3.99039062 7.4025 4.08203125 8.125 C4 10 4 10 2 12 C0.92922625 8.78767875 1 6.36062193 1 3 C0.67 2.01 0.34 1.02 0 0 Z " fill="#44A176" transform="translate(312,46)"/>
<path d="M0 0 C-6.4 3.07692308 -6.4 3.07692308 -9.4375 2.6875 C-9.953125 2.460625 -10.46875 2.23375 -11 2 C-10.34 2 -9.68 2 -9 2 C-9 1.34 -9 0.68 -9 0 C-3.375 -1.125 -3.375 -1.125 0 0 Z " fill="#144C2E" transform="translate(311,169)"/>
<path d="M0 0 C0.99 0 1.98 0 3 0 C2.74438677 2.3431213 2.40729228 4.67843403 2 7 C1.01 7.495 1.01 7.495 0 8 C0 5.36 0 2.72 0 0 Z " fill="#727272" transform="translate(419,338)"/>
<path d="M0 0 C0.33 0 0.66 0 1 0 C1.33 3.3 1.66 6.6 2 10 C1.01 10 0.02 10 -1 10 C-0.67 6.7 -0.34 3.4 0 0 Z " fill="#277248" transform="translate(301,100)"/>
<path d="M0 0 C0.66 0.66 1.32 1.32 2 2 C2.66 1.67 3.32 1.34 4 1 C2.95125002 3.62187494 2.35068687 4.79371361 -0.125 6.25 C-0.74375 6.4975 -1.3625 6.745 -2 7 C-1.34 4.69 -0.68 2.38 0 0 Z " fill="#247247" transform="translate(293,93)"/>
<path d="M0 0 C3.125 0.3125 3.125 0.3125 7.125 3.3125 C3.165 2.9825 -0.795 2.6525 -4.875 2.3125 C-2.875 0.3125 -2.875 0.3125 0 0 Z " fill="#1A5536" transform="translate(176.875,75.6875)"/>
</svg>
